<svg xmlns="http://www.w3.org/2000/svg" width="1358.667" height="580"><defs><clipPath id="a" clipPathUnits="userSpaceOnUse"><path d="M0 0h10189.3v4343.23H0Z"/></clipPath></defs><g clip-path="url(#a)" transform="matrix(.13333 0 0 -.13333 0 580)"><path d="M2148.83 512.25h-32.41v-48.621h32.41c15.71 0 25.67 9.723 25.67 24.18 0 14.461-9.96 24.441-25.67 24.441m1.74-79.789h-34.15v-66.832h-34.67v177.543h68.82c36.66 0 58.6-25.203 58.6-55.363 0-30.168-21.94-55.348-58.6-55.348m167.66 79.789h-32.67v-46.879h32.67c15.21 0 25.17 9.711 25.17 23.438 0 13.703-9.96 23.441-25.17 23.441m26.93-146.621-34.67 70.82h-24.93v-70.82h-34.66v177.543h69.58c36.15 0 57.59-24.703 57.59-54.363 0-24.93-15.22-40.387-32.42-46.629l39.65-76.551zm81.36 0v177.543h116.94V512.25h-82.27v-41.648h70.05v-30.911h-70.05v-43.14h82.27v-30.922zm212.29-1.488c-26.92 0-47.36 5.73-64.83 23.429l22.45 22.442c11.22-11.223 26.42-14.961 42.89-14.961 20.44 0 31.4 7.73 31.4 21.949 0 6.219-1.74 11.469-5.48 14.961-3.49 3.23-7.48 4.98-15.71 6.23l-21.43 2.989c-15.22 2.242-26.44 6.992-34.42 14.718-8.47 8.473-12.71 19.942-12.71 34.891 0 31.672 23.44 53.871 61.83 53.871 24.45 0 42.14-5.988 57.35-20.691l-21.94-21.699c-11.21 10.722-24.69 12.21-36.41 12.21-18.44 0-27.43-10.21-27.43-22.429 0-4.492 1.51-9.242 5.25-12.711 3.48-3.25 9.22-5.988 16.46-6.988l20.94-2.993c16.2-2.25 26.43-6.738 33.91-13.711 9.47-8.988 13.71-21.949 13.71-37.656 0-34.402-28.67-53.851-65.83-53.851m111.06 1.488v177.543h116.95V512.25h-82.29v-41.648h70.06v-30.911h-70.06v-43.14h82.29v-30.922zm268.37 0-70.31 108.961V365.629h-34.66v177.543h30.92l70.32-108.723v108.723h34.65V365.629zm152.71 146.621V365.629h-34.67V512.25h-46.36v30.922h127.41V512.25zm87.09-146.621v177.543h116.93V512.25h-82.27v-41.648h70.06v-30.911h-70.06v-43.14h82.27v-30.922zm250.19 135.641c-5.99 7.23-13.97 10.98-25.94 10.98h-26.17V396.551h26.17c11.97 0 19.95 3.738 25.94 10.98 6.49 7.981 7.48 20.688 7.48 47.61 0 26.929-.99 38.148-7.48 46.129m24.19-118.688c-11.72-11.723-28.43-16.953-46.88-16.953h-64.08v177.543h64.08c18.45 0 35.16-5.25 46.88-16.973 19.94-19.949 17.94-44.379 17.94-71.058 0-26.672 2-52.61-17.94-72.559m207.09 57.609h-36.15v-43.64h36.15c15.71 0 23.19 9.969 23.19 21.937 0 11.973-7.48 21.703-23.19 21.703m-2.25 72.059h-33.9v-40.891h33.9c14.72 0 22.95 8.231 22.95 20.442 0 12.219-8.23 20.449-22.95 20.449m5.75-146.621h-74.31v177.543h71.31c34.66 0 54.86-19.453 54.86-49.883 0-19.699-12.96-32.41-21.95-36.648 10.73-4.981 24.43-16.2 24.43-39.891 0-33.16-22.68-51.121-54.34-51.121m170.14 72.801v-72.801h-34.4v72.801l-53.37 104.742h37.66l33.16-71.563 32.66 71.563h37.65zm2135.01 26.82h79.22l139.74 322.23h-83.96l-43.02-119.589-45.63 119.589h-85.7l92.17-211.742zm911.64-32.578h36.96V110.879h-36.96zm683.4-10.434c4.63-4.929 6.97-11.156 6.97-18.699 0-7.539-2.34-13.769-6.97-18.699-4.63-4.918-10.74-7.399-18.27-7.399-7.54 0-13.62 2.481-18.26 7.399-4.63 4.93-6.94 11.16-6.94 18.699 0 7.543 2.31 13.77 6.94 18.699 4.64 4.922 10.72 7.383 18.26 7.383 7.53 0 13.64-2.461 18.27-7.383m-997.72 140.883v121.77c0 26.66-9.99 39.98-29.99 39.98-11.03 0-19.35-3.68-25.01-11.07-5.67-7.391-8.48-18.051-8.48-31.961V563.121h-78.28v330.481H6582v-130.02c6.37 9.848 15.06 17.457 26.09 22.828 11.01 5.371 23.47 8.039 37.39 8.039 25.8 0 45.31-7.969 58.48-23.91 13.2-15.949 19.8-39.57 19.8-70.879V563.121Zm216.71-378.961c-3.48-10-8.48-18.488-15-25.441-6.52-6.957-14.29-12.399-23.27-16.309-8.98-3.898-19.12-5.859-30.44-5.859-11.29 0-21.45 1.961-30.43 5.859-8.99 3.91-16.74 9.352-23.27 16.309-6.52 6.953-11.53 15.441-15 25.441-3.47 10.012-5.21 21.102-5.21 33.262 0 12.187 1.74 23.277 5.21 33.269 3.47 10 8.48 18.469 15 25.45 6.53 6.937 14.28 12.371 23.27 16.3 8.98 3.911 19.14 5.868 30.43 5.868 11.32 0 21.46-1.957 30.44-5.868 8.98-3.929 16.75-9.363 23.27-16.3 6.52-6.981 11.52-15.45 15-25.45 3.48-9.992 5.23-21.082 5.23-33.269 0-12.16-1.75-23.25-5.23-33.262m11.09 114.578c-9.99 10.153-21.81 18.121-35.44 23.934-13.63 5.789-28.42 8.68-44.36 8.68-15.93 0-30.72-2.891-44.35-8.68-13.63-5.813-25.43-13.781-35.43-23.934-10.02-10.148-17.83-22.179-23.49-36.09-5.65-13.918-8.49-28.988-8.49-45.226 0-16.231 2.84-31.301 8.49-45.223 5.66-13.91 13.47-25.949 23.49-36.09 10-10.14 21.8-18.117 35.43-23.918 13.63-5.793 28.42-8.703 44.35-8.703 15.94 0 30.73 2.91 44.36 8.703 13.63 5.801 25.45 13.778 35.44 23.918 10 10.141 17.83 22.18 23.48 36.09 5.65 13.922 8.48 28.992 8.48 45.223 0 16.238-2.83 31.308-8.48 45.226-5.65 13.911-13.48 25.942-23.48 36.09m733.39 26.524h36.96V110.879h-36.96zm-114.76 445.277c13.18-15.949 19.77-39.57 19.77-70.879V563.121h-78.26v121.77c0 26.66-10 39.98-30.02 39.98-11.02 0-19.34-3.68-25-11.07-5.64-7.391-8.47-18.051-8.47-31.961V563.121h-78.28v224.391h76.55l.87-27.852c5.79 11.02 14.26 19.582 25.42 25.66 11.16 6.102 24.14 9.129 38.93 9.129 25.79 0 45.29-7.969 58.49-23.91m-659-70.449c4.91 24.93 18.4 37.39 40.42 37.39 10.71 0 19.41-3.261 26.09-9.769 6.65-6.531 10.71-15.731 12.16-27.621zm151.76-17.82c0 17.39-2.55 32.98-7.62 46.742-5.08 13.769-12.4 25.519-21.96 35.23-9.57 9.707-21.17 17.168-34.79 22.387-13.63 5.211-28.85 7.82-45.65 7.82-17.41 0-33.27-2.89-47.63-8.679-14.34-5.821-26.74-13.918-37.18-24.36-10.43-10.43-18.47-22.98-24.12-37.621-5.65-14.629-8.49-30.797-8.49-48.48 0-18.27 3.12-34.778 9.36-49.559 6.22-14.789 15.22-27.34 26.95-37.621 11.74-10.301 25.95-18.199 42.62-23.699 16.67-5.508 35.43-8.27 56.32-8.27 17.38 0 34.13 2.039 50.22 6.09 16.08 4.051 29.79 9.859 41.09 17.391L6959 629.648c-9.28-4.07-19.35-7.179-30.22-9.347-10.87-2.16-20.65-3.25-29.34-3.25-35.67 0-57.41 12.738-65.24 38.258h147.85c1.74 7.242 2.62 16.242 2.62 26.961m186.1-45.668c-8.99-9.852-20.87-14.774-35.65-14.774s-26.67 4.922-35.66 14.774c-9 9.859-13.48 22.757-13.48 38.707 0 15.941 4.48 28.839 13.48 38.703 8.99 9.847 20.88 14.789 35.66 14.789s26.66-4.942 35.65-14.789c8.98-9.864 13.48-22.762 13.48-38.703 0-15.95-4.5-28.848-13.48-38.707m52.62 123.937c-11.02 10.723-24.07 19.063-39.14 25.012-15.09 5.929-31.45 8.898-49.13 8.898-17.7 0-34.08-2.969-49.14-8.898-15.08-5.949-28.13-14.289-39.13-25.012-11.02-10.73-19.65-23.34-25.87-37.828-6.25-14.5-9.36-30.289-9.36-47.402 0-17.11 3.11-32.899 9.36-47.387 6.22-14.5 14.85-27.113 25.87-37.84 11-10.73 24.05-19.062 39.13-25 15.06-5.941 31.44-8.922 49.14-8.922 17.68 0 34.04 2.981 49.13 8.922 15.07 5.938 28.12 14.27 39.14 25q16.515 16.09 25.86 37.84c6.24 14.488 9.36 30.277 9.36 47.387 0 17.113-3.12 32.902-9.36 47.402q-9.345 21.732-25.86 37.828m-617.54-452.891c13.32-15.789 20-38.918 20-69.359v-127.41h-36.96v120.902c0 23.188-3.98 40.16-11.96 50.86-7.98 10.738-20.66 16.097-38.04 16.097-19.15 0-34-6.297-44.58-18.906-10.58-12.621-15.87-30.223-15.87-52.84V110.879h-36.96v214.383h34.79l.55-38.051c4.96 11.82 12.27 21.488 22.06 28.93 13.34 10.14 29.56 15.211 48.71 15.211 25.5 0 44.93-7.891 58.26-23.704m625.5-123.488c-3.49-10-8.5-18.488-15-25.441-6.53-6.957-14.3-12.399-23.28-16.309-8.98-3.898-19.13-5.859-30.43-5.859-11.31 0-21.45 1.961-30.44 5.859-8.99 3.91-16.74 9.352-23.27 16.309-6.52 6.953-11.52 15.441-15 25.441-3.48 10.012-5.21 21.102-5.21 33.262 0 12.187 1.73 23.277 5.21 33.269 3.48 10 8.48 18.469 15 25.45 6.53 6.937 14.28 12.371 23.27 16.3 8.99 3.911 19.13 5.868 30.44 5.868 11.3 0 21.45-1.957 30.43-5.868 8.98-3.929 16.75-9.363 23.28-16.3 6.5-6.981 11.51-15.45 15-25.45 3.47-9.992 5.22-21.082 5.22-33.269 0-12.16-1.75-23.25-5.22-33.262m11.09 114.578c-10.01 10.153-21.83 18.121-35.45 23.934-13.62 5.789-28.41 8.68-44.35 8.68s-30.73-2.891-44.36-8.68c-13.62-5.813-25.43-13.781-35.44-23.934-10-10.148-17.83-22.179-23.47-36.09-5.65-13.918-8.49-28.988-8.49-45.226 0-16.231 2.84-31.301 8.49-45.223 5.64-13.91 13.47-25.949 23.47-36.09 10.01-10.14 21.82-18.117 35.44-23.918 13.63-5.793 28.42-8.703 44.36-8.703s30.73 2.91 44.35 8.703c13.62 5.801 25.44 13.778 35.45 23.918 9.99 10.141 17.82 22.18 23.48 36.09 5.65 13.922 8.47 28.992 8.47 45.223 0 16.238-2.82 31.308-8.47 45.226-5.66 13.911-13.49 25.942-23.48 36.09M5901.61 639.441c-8.42-9.14-19.27-13.691-32.61-13.691s-24.28 4.551-32.84 13.691c-8.54 9.118-12.82 21.09-12.82 35.868 0 14.793 4.28 26.75 12.82 35.871 8.56 9.14 19.5 13.691 32.84 13.691s24.19-4.551 32.61-13.691c8.4-9.121 12.62-21.078 12.62-35.871 0-14.778-4.22-26.75-12.62-35.868m86.53 148.071h-73.49l-.86-26.102c-6.68 10.442-15.59 18.539-26.75 24.36-11.16 5.789-23.55 8.679-37.17 8.679-14.79 0-28.57-3.027-41.31-9.129-12.76-6.078-23.85-14.488-33.27-25.218-9.43-10.723-16.73-23.403-21.96-38.043-5.21-14.649-7.83-30.508-7.83-47.61 0-17.41 2.54-33.347 7.61-47.84 5.07-14.5 12.11-26.949 21.1-37.39 8.98-10.438 19.7-18.559 32.17-24.348 12.46-5.801 26.23-8.711 41.32-8.711 14.49 0 27.45 2.84 38.91 8.488 11.45 5.653 20.5 13.692 27.18 24.133l.86-25.66h73.49zm2119.4-619.223c0-20.008-7.9-35.809-23.69-47.398-15.81-11.59-37.05-17.403-63.71-17.403-13.92 0-27.69 1.961-41.32 5.883-13.61 3.91-24.49 8.918-32.61 15l15.24 26.527c18.82-11.007 38.4-16.539 58.69-16.539 15.94 0 28.27 2.77 36.96 8.282 8.69 5.507 13.05 13.32 13.05 23.468 0 4.641-.65 8.711-1.96 12.18-1.31 3.481-3.85 6.609-7.61 9.34-3.77 2.769-8.99 5.449-15.65 8.051-6.67 2.609-15.37 5.511-26.09 8.699-23.49 6.961-40.3 15.512-50.44 25.652-10.16 10.16-15.22 23.481-15.22 40.02 0 18.539 7.18 33.41 21.52 44.57s33.7 16.731 58.05 16.731c11.01 0 22.76-1.661 35.22-4.993 12.47-3.328 22.9-7.621 31.31-12.839l-14.35-26.532c-17.97 9.012-35.37 13.481-52.18 13.481-29.28 0-43.91-8.821-43.91-26.508 0-8.981 3.33-16.16 10-21.539 6.65-5.352 18.26-10.5 34.79-15.43 13.9-4.051 25.57-8.262 34.99-12.613 9.42-4.34 17.03-9.199 22.84-14.559 5.79-5.371 9.92-11.449 12.38-18.269 2.47-6.813 3.7-14.559 3.7-23.262M5718.77 398.75H5605.7V110.879h-39.12V398.75h-113.06v33.48h265.25zm-171.55 428.762h24.79c37.68 0 56.52-15.082 56.52-45.231 0-31.031-19.13-46.531-57.4-46.531h-23.91zm43.48-157.41 57.83-106.981h95.68l-82.2 130.891c15.95 9.277 28.26 21.668 36.97 37.168 8.7 15.519 13.04 32.402 13.04 50.66 0 17.402-2.97 33.051-8.91 46.969-5.95 13.921-14.43 25.66-25.43 35.222-11.02 9.571-24.51 16.891-40.45 21.957-15.94 5.071-34.07 7.614-54.36 7.614h-119.13V563.121h83.48V669.66h23.91zm208.69-370.493c11.9 0 21.9-2.097 30.02-6.308 8.11-4.192 14.63-9.641 19.57-16.301 4.92-6.672 8.47-14.352 10.64-23.059 1.72-6.839 2.57-13.82 2.93-20.863h-130.48c2.08 18.242 7.81 33.141 17.33 44.582 12.18 14.629 28.83 21.949 49.99 21.949m71.98 2.172c-8.56 9.289-18.77 16.528-30.66 21.739-11.88 5.21-24.93 7.832-39.13 7.832-15.66 0-30.01-2.821-43.05-8.473-13.04-5.668-24.28-13.629-33.7-23.93-9.43-10.277-16.74-22.609-21.96-36.949-5.22-14.359-7.82-30.078-7.82-47.18 0-35.07 10.43-62.398 31.3-81.968 20.87-19.571 50.16-29.364 87.84-29.364 15.36 0 30.21 1.75 44.57 5.223 14.34 3.48 26.46 8.258 36.31 14.359l-13.92 26.95q-33.48-13.47-65.22-13.469c-27.55 0-48.56 6.597-63.05 19.781-12.07 10.969-19.03 26.91-21.06 47.617h165.42c.3 2.903.51 5.52.66 7.813.13 2.34.21 6.527.21 12.617 0 15.953-2.32 30.519-6.96 43.711-4.63 13.199-11.24 24.43-19.78 33.691m1930.3-2.172c37.09 0 58.11-18.55 63.04-55.66.58-2.32.94-5.07 1.09-8.258.01-.242.01-.601.02-.859h-129.35c2.06 16.969 7.61 31.117 16.72 42.387q18.03 22.392 48.48 22.39m73.05 2.821c-8.41 9.129-18.63 16.242-30.67 21.32-12.02 5.059-25.43 7.602-40.21 7.602-15.08 0-28.99-2.821-41.74-8.473-12.76-5.668-23.78-13.629-33.05-23.93q-13.935-15.415-21.75-36.519c-5.21-14.059-7.82-29.352-7.82-45.871q0-53.906 30.66-83.5c20.43-19.7 49.2-29.571 86.31-29.571 15.94 0 31.15 1.903 45.66 5.66q21.72 5.662 38.25 15.653l-13.04 27.828c-23.19-10.719-46.24-16.078-69.14-16.078-50.36 0-77.65 23.078-81.96 69.148h164.14c.3 2.891.51 5.5.67 7.813.13 2.328.21 6.527.21 12.609 0 15.938-2.32 30.367-6.95 43.27-4.64 12.898-11.17 23.91-19.57 33.039M6119.24 147.422l13.48-27.402c-9.29-5.211-19.94-9.278-31.96-12.18-12.03-2.899-24.13-4.352-36.31-4.352-17.98 0-34.29 2.614-48.92 7.832-14.64 5.219-27.11 12.782-37.4 22.621-10.29 9.86-18.19 21.739-23.7 35.661-5.51 13.898-8.26 29.41-8.26 46.527 0 17.09 2.83 32.68 8.48 46.73 5.65 14.071 13.55 26.172 23.71 36.313 10.14 10.156 22.39 18.039 36.73 23.707 14.35 5.652 30.07 8.473 47.18 8.473 22.9 0 44.94-5.793 66.1-17.391l-14.35-26.973c-7.53 3.774-15.65 6.602-24.35 8.492-8.7 1.879-17.25 2.829-25.66 2.829-24.64 0-44.13-7.25-58.48-21.75S5984 242.5 5984 217.859c0-25.5 7.32-45.437 21.97-59.789 14.63-14.351 34.85-21.519 60.66-21.519 16.8 0 34.34 3.629 52.61 10.871m231.77 160.027c13.48-15.961 20.22-39 20.22-69.16v-127.41h-36.96v120.902c0 23.188-4.06 40.16-12.17 50.86-8.12 10.738-20.87 16.097-38.27 16.097-19.13 0-33.99-6.297-44.57-18.906-10.59-12.621-15.86-30.223-15.86-52.84V110.879h-36.97v321.793h36.97V290.129c5.19 11.101 12.55 20.16 22.16 27.082 13.05 9.437 28.7 14.141 46.97 14.141 25.5 0 45-7.973 58.48-23.903m92.92 251.762c-11.45-2.02-23.27-3.051-35.43-3.051-56.53 0-84.79 29.418-84.79 88.281v80h-37.84v63.071h37.84v57.816h78.25v-57.816h73.06l-19.55-63.071h-53.51V657.91q0-20.43 6.54-28.469c4.35-5.371 11.73-8.05 22.17-8.05 11.88 0 23.49 2.179 34.79 6.531l7.84-60.453c-8.13-3.481-17.91-6.219-29.37-8.258m1038.78-399.84c6.52 7.098 11.66 15.52 15.43 25.219 3.77 9.711 5.66 20.371 5.66 31.969 0 12.171-1.73 23.332-5.22 33.492-3.48 10.14-8.41 18.758-14.78 25.847-6.38 7.114-14.13 12.614-23.27 16.543-9.13 3.911-19.2 5.868-30.22 5.868-10.73 0-20.58-2.028-29.56-6.09-8.99-4.059-16.74-9.707-23.28-16.957-6.5-7.25-11.59-15.871-15.21-25.871-3.63-10-5.44-20.942-5.44-32.832 0-24.637 6.59-44.137 19.79-58.489 13.19-14.351 31.09-21.519 53.7-21.519 10.43 0 20.14 2.019 29.13 6.09 8.99 4.05 16.74 9.629 23.27 16.73m19.36 165.891h36.08V126.551C7538.15 42.18 7499.45 0 7422.05 0c-8.11 0-16.32.52-24.57 1.531-8.26 1.02-16.09 2.39-23.48 4.117-7.38 1.75-14.21 3.774-20.43 6.114-6.24 2.308-11.25 4.91-15.01 7.808l9.57 30.012c17.69-11.312 42.18-16.96 73.49-16.96 27.25 0 47.33 7.237 60.22 21.737 12.9 14.5 19.34 37.262 19.34 68.282v25.211c-7.1-12.192-16.36-22.071-27.82-29.563-15.08-9.859-32.62-14.801-52.61-14.801-15.09 0-28.85 2.774-41.32 8.274-12.46 5.508-23.2 13.199-32.17 23.027-8.99 9.883-15.95 21.762-20.87 35.672-4.93 13.918-7.39 29.289-7.39 46.098 0 16.23 2.67 31.312 8.04 45.222 5.36 13.918 12.83 26.02 22.4 36.309 9.56 10.289 20.78 18.41 33.69 24.351 12.91 5.938 26.88 8.911 41.97 8.911 18.84 0 35.49-5.133 50-15.43 10.58-7.512 19.24-17.203 26.11-28.953zM4878.64 670.871a164 164 0 0 0 24.21-4.25l42.18 240.719a397 397 0 0 1-24.2 4.269zm-127.43-42.652-185.68 156.883a409 409 0 0 1-24.49-29.364l185.24-156.59c7.14 10.653 15.53 20.391 24.93 29.071M5075 854.93c-6.51 4.058-13.1 8-19.84 11.699L4933.82 655.25a162.6 162.6 0 0 0 20-11.52zm91.67-78.532-185.11-156.339c4.55-4.84 8.82-9.938 12.76-15.309l185.05 156.262c-4.11 5.226-8.33 10.367-12.7 15.386m-463.92-231.609c3.34 14.5 8.55 28.27 15.45 41.012l-227.41 83.398a403 403 0 0 1-14.98-41.258zm323.26-36.84c0-90.437-73.31-163.738-163.73-163.738-81 0-148.21 58.828-161.37 136.059l-226.99-83.258a406 406 0 0 1 18.5-51.614l225.6 82.731-184.16-155.82c11.67-16.36 24.48-31.817 38.37-46.227l172.19 145.559-112.33-196.782c17.85-12.48 36.7-23.578 56.49-33.089l105.55 184.859-36.83-210.359c22.54-6.09 45.86-10.231 69.78-12.309l34.36 196.578 34.49-196.699c25.04 2.082 49.43 6.449 72.96 12.91l-31.99 182.492 92.1-160.633a402.4 402.4 0 0 1 71.17 41.813l-84.53 147.269 129.24-109.14a407.2 407.2 0 0 1 54.98 67.219l-115.5 97.468 141.39-51.816c13.09 27.129 23.2 55.976 30.08 86.058l-124.12 45.45 131.89.019c1.7 15.16 2.65 30.551 2.65 46.172 0 18.078-1.29 35.828-3.56 53.277h-245.98c6-17.039 9.3-35.347 9.3-54.449m-327.47 0c0 9.102.77 18 2.2 26.692h-241.61c-.53-8.45-.87-16.942-.87-25.52 0-8.012.29-15.961.75-23.851h241.13c-1.03 7.421-1.6 14.98-1.6 22.679m68.83 133.383a163 163 0 0 0 28.39 16.227L4674.4 869.262c-9.66-5.121-19.05-10.633-28.23-16.492zm10.85 265.707c8.82 1.891 17.75 3.453 26.77 4.742l42.21-240.812a161.3 161.3 0 0 1-26.84-4.719z" style="fill:#211d1d;fill-opacity:1;fill-rule:nonzero;stroke:none"/><path d="m3200.91 3676.93 146.64 191.23-251.33-68.54.06-399.74-262.81-58.89 2.26-1807.04h524.94l-160.28 160.38zm1412.36 64.37-198.44-44.75-1.67-850.19 219.68 30.46c93.19 14.21 162.1 94.32 162.21 188.59.21 193.9.37 380.05.58 539.51.12 96.01-88.54 156.8-182.36 136.38m-201.12-1281.71c-.64-309.53-1.24-610.27-1.83-925.64h349.72l-248.46 935.21zm-403.64 1588.83-.97-443.1-502.32-113.19c-35.03-7.88-60.13-39.24-60.17-75.15l-.5-488.4 449.5 76.16-.91-458.02-449.05-50.15-.5-464.93c-.04-44.04 36.87-79.3 80.85-77l479.63 25.09-.98-445.78h114.48l5.65 2545.75zm-1665.64-817.16-1.3 362.55-98.46-26.85 8.12-2033.01h358.46l-4.02 1756.06zM0 2955.23V2778.2l149.605 217.83zm0-1421.28h161.992L0 1722.64ZM2004.16 3501.8l-310.72-84.74 316.18-967.87zM729.391 3024.83l129.32 164.58-371.156-101.22 153.113-160.11 1.648-267.89-203.636-39.5-.946 182.22-235.933-52.66 2.703-957.51 238.34 14.31-.942 181.73 204.575 16.45 1.644-252.02-159.629-219.26h385.156L739.52 1668.02zm974.769-1490.88h312.58l-319.09 1054.39zm-346.54 1791.53 2.3-315.72-378.502-84.39c-24.898-5.56-42.73-27.95-42.539-53.45l2.5-347.78 325.131 54.49 2.35-324-325.251-36.16 2.43-331.85c.215-30.76 26-55.16 56.731-53.67l365.43 17.6 2.34-316.6h96.53l-12.74 1817.9z" style="fill:#f8a20e;fill-opacity:1;fill-rule:nonzero;stroke:none"/><path d="m7664.22 1905.05-64.97-371.1h552.54l-73.12 352.95zM7849.7 2987.9c-48.58-277.18-72.78-429.26-121.05-717.34l276.71-26.63c-55.17 286.7-82.84 443.69-138.31 740.57zm1907.93-543.94c118.72-19.44 178.06-29.15 296.67-48.55.1-102.46.1-166.12.2-268.59-118.45 13.1-177.68 19.98-296.19 33.1.36-141.47.54-199.68.89-344.96 166.4-7.36 249.6-11.03 418-18.37v908.56l-416.08 93.57c-1.4-149.06-2.09-209.54-3.49-354.76M5987.91 4097.22l271.58-405 4.06-403.6-356.88 69.34-2.44 307.2-462.87 104.64 2.47-632.04 527.38-85L6270.26 2628l7.59-748.67-278.01-345.38h829.38L6806.55 3465l-401.11 91.23-4.83 428.44zm2016.86-550.03L8434 1533.95h257.77l-217.54 269.83-13.47 1363.02 203.47 200.55zm-509.92 139.04 4.91-379.07-403.9 91.99 26.19-1865.2h191.79l383.86 2096.98zm2142.18-2152.28-138.18 137.42-5.44 1326.48 138.34 106.03-468.65 127.41 206.72-281.71 1.21-258.54-274.35 52.93c-.52 78.59-.77 125.07-1.29 204.34l-359.26 80.74c3.3-388.3 6.65-787.27 9.96-1175.57l354.42-17.05-1.95 396.85-208.05 23.14-2.29 326.02 484.32-78.3 3.04-731.62c-83.41-89.19-131.47-141.64-214.6-238.57z" style="fill:#b1781d;fill-opacity:1;fill-rule:nonzero;stroke:none"/><path d="m4866.19 4282.32 212.61-296.23V2920.64l-251.67-421.13 262.4-965.56v2809.28z" style="fill:#f8a20e;fill-opacity:1;fill-rule:nonzero;stroke:none"/><path d="M5089.53 1533.95h280.71l-280.27 385.27zM5912.7 2587.6c-209.14 22.79-308.18 34.91-516.41 57.44l-296.04 463.78v873.41l253.14 288.04-263.86 72.96.44-1980.56 357-29.05 1.27-321.49 469.2-22.88c-1.9 236.47-2.85 357.15-4.74 598.35m4122.6 562.11c-17.3 10.21-21.6 14.1-21.3 22.59v.39c.2 6.27 4.8 10.05 13.3 7.77 8.6-2.27 17.2-9.36 25.9-19.56l12.2 18c-9.9 13.12-22.3 22.41-37 26.47-20.7 5.72-35.88-5.83-36.56-29.46l-.01-.38c-.75-25.87 12.17-36.45 32.37-48.18 16.7-9.67 20.1-14.17 19.9-21.28l-.1-.37c-.2-7.5-5.8-10.78-14.9-8.62-11.5 2.74-20.9 11.11-29.71 22.96l-13.73-17.15c11.72-16.81 26.94-27.22 42.24-30.71 21.8-4.97 37.6 5.71 38.3 30.92v.36c.7 22.12-10.6 34.27-30.9 46.25m130 16.39-28.1-44.99-25 59.42-24 6.55-3.7-125.92 21.8-4.93 2.4 81.05 26.6-59.47.6-.13 30 45.53-2.5-79.84 22.1-4.93 3.8 121.18z" style="fill:#b1781d;fill-opacity:1;fill-rule:nonzero;stroke:none"/></g></svg>