<svg xmlns="http://www.w3.org/2000/svg" width="1488.827" height="564.248"><defs><clipPath id="a" clipPathUnits="userSpaceOnUse"><path d="M-.001 48.941H1147.97v505.08H-.001Z"/></clipPath><clipPath id="b" clipPathUnits="userSpaceOnUse"><path d="M513.161 293.597c0-71.567 58.019-129.587 129.587-129.587 71.57 0 129.588 58.02 129.588 129.587 0 71.569-58.018 129.588-129.588 129.588-71.568 0-129.587-58.019-129.587-129.588"/></clipPath></defs><path d="M642.747 423.185c-71.566 0-129.585-58.018-129.585-129.588 0-71.566 58.019-129.585 129.585-129.585 71.57 0 129.588 58.019 129.588 129.585 0 71.57-58.018 129.588-129.588 129.588" style="fill:#100f0d;fill-opacity:1;fill-rule:nonzero;stroke:none" transform="matrix(1.33333 0 0 -1.33333 0 564.248)"/><g clip-path="url(#a)" transform="matrix(1.33333 0 0 -1.33333 0 564.248)"><g clip-path="url(#b)"><path d="m491.615 152.814 13.323-9.99 105.759 138.03h-20.814zm34.359 0 13.323-9.99 105.76 138.03h-20.815zM704.76 316.895h-20.816l106.967 139.558 13.325-9.989zm-35.263 0h-20.818l106.969 139.558 13.326-9.989zM451.725 210.683l-13.325 9.992 249.987 333.346 13.321-9.99zm19.828-19.826-13.326 9.99 249.985 333.347 13.324-9.99zm19.825-19.827-13.323 9.99L728.04 514.366l13.323-9.99zm77.046-81.338-13.326 9.99 249.988 333.347 13.321-9.99zm40.752-40.75-13.325 9.99 249.985 333.346 13.321-9.99zm-20.241 20.239-13.326 9.99L825.594 412.52l13.324-9.992z" style="fill:#f9b00b;fill-opacity:1;fill-rule:nonzero;stroke:none"/><path d="m629.931 307.432 73.561 99.548a133 133 0 0 1-15.296 7.361L596.628 290.78h66.498l-80.785-109.134a133 133 0 0 1 15.933-6.513l98.172 132.299z" style="fill:#74c5e0;fill-opacity:1;fill-rule:nonzero;stroke:none"/></g></g><path d="M642.747 423.185c-71.566 0-129.585-58.018-129.585-129.588 0-71.566 58.019-129.585 129.585-129.585 71.57 0 129.588 58.019 129.588 129.585 0 71.57-58.018 129.588-129.588 129.588m0-14.378c63.528 0 115.211-51.682 115.211-115.21S706.275 178.39 642.747 178.39 527.54 230.07 527.54 293.597c0 63.528 51.68 115.21 115.207 115.21M43.195 386.469v-98.631h6.839q6.116 0 9.18 3.24c2.035 2.162 3.058 5.277 3.058 9.36v74.152c0 4.076-1.023 7.074-3.058 8.998q-3.065 2.88-9.18 2.881zm0-137.865v-67.807L0 164.012v259.172h53.631q28.08.001 40.499-11.878c8.277-7.917 12.415-19.319 12.415-34.195v-78.473q0-23.041-12.415-36.535-12.42-13.5-40.137-13.499zm124.477-21.403q1.636 2.863 1.636 10.228v114.249q0 7.084-1.636 10.088c-1.09 1.998-3.094 2.998-6 2.998q-4.365 0-5.862-2.998-1.5-3.004-1.5-10.088V237.429q0-7.365 1.635-10.228 1.637-2.863 6-2.863 4.091 0 5.727 2.863m-36.131-24.679c-7.546 6.362-11.315 16.815-11.315 31.36v119.706q-.002 20.45 11.315 30.538 11.313 10.086 30.404 10.088c12.544 0 22.585-3.365 30.133-10.088 7.538-6.727 11.313-16.904 11.313-30.538V233.882q0-21.817-11.589-31.36c-7.728-6.362-17.77-9.539-30.13-9.539-12.542 0-22.59 3.177-30.131 9.539m128.022-7.088h-29.996l-21.54 196.329h31.628l7.277-105.855c.132-1.917 2.924-1.98 3.144-.072l12.214 105.927h20.994l11.274-107.794c.201-1.912 2.995-1.874 3.144.046l8.214 107.748h31.36l-23.179-196.329h-29.723l-10.716 100.751c-.199 1.879-2.936 1.881-3.139.003zm202.826 0H344.363v196.329h64.079v-31.087h-31.358V310.23h26.232l.06-31.358h-26.292v-51.536h75.713z" style="fill:#100f0d;fill-opacity:1;fill-rule:nonzero;stroke:none" transform="matrix(1.33333 0 0 -1.33333 0 564.248)"/><path d="M450.95 363.948h5.181q4.633-.001 6.952-2.181c1.543-1.459 2.317-3.728 2.317-6.818v-36.487q-.001-4.639-2.317-7.088-2.319-2.459-6.952-2.459h-5.181zm62.195-168.513-29.828 89.086c2.365 1.375 4.459 2.991 6.218 4.898q9.406 10.226 9.405 27.677v39.763c0 11.268-3.134 19.906-9.405 25.904q-9.409 8.998-30.677 8.998h-40.629V237.976h32.721v25.192c0 2.329 3.262 2.861 4.002.654l22.899-68.387zm336.339 105.002c0-4.083-1.026-7.198-3.06-9.357q-3.063-3.242-9.178-3.242h-6.839v98.63h6.839q6.115 0 9.178-2.88c2.034-1.924 3.06-4.922 3.06-8.998zm-8.639 122.749H787.21V164.011l43.197 16.788v67.805h10.798q27.717-.002 40.137 13.498 12.417 13.496 12.418 36.536v78.472c0 14.876-4.141 26.278-12.418 34.198q-12.42 11.877-40.497 11.878m96.931-31.424H903.89v-178.16c0-9.4 7.625-17.025 17.028-17.025h115.712v33.615h-98.854zm134.864 0-8.49-83.131c-.19-1.805-2.82-1.797-2.99.007l-8.04 83.124h-33.34l25.48-147.61v-47.575h34.16v48.39l26.3 146.795z" style="fill:#100f0d;fill-opacity:1;fill-rule:nonzero;stroke:none" transform="matrix(1.33333 0 0 -1.33333 0 564.248)"/><path d="m991.701 327.292 2.691-22.144-9.683-4.577 3.249 26.721c.247 2.233 3.494 2.233 3.743 0m-10.805-58.08 16.894 7.986 3.97-32.637h32.53l-28.2 147.2h-33.07l-27.107-147.2h31.986zM237.599 54.82h-3.469v-5.203h3.469c1.681 0 2.748 1.04 2.748 2.588 0 1.547-1.067 2.615-2.748 2.615m.186-8.539h-3.655v-7.152h-3.709v19h7.364c3.924 0 6.271-2.696 6.271-5.924s-2.347-5.924-6.271-5.924m17.943 8.539h-3.496v-5.017h3.496c1.628 0 2.694 1.04 2.694 2.508s-1.066 2.509-2.694 2.509m2.882-15.691-3.71 7.579h-2.668v-7.579h-3.709v19h7.445c3.869 0 6.164-2.643 6.164-5.818 0-2.668-1.628-4.322-3.469-4.99l4.243-8.192zm8.707 0v19h12.515V54.82h-8.805v-4.457h7.497v-3.308h-7.497v-4.617h8.805v-3.309zm22.719-.159c-2.881 0-5.068.613-6.937 2.507l2.402 2.402c1.201-1.201 2.827-1.602 4.59-1.602 2.188 0 3.361.828 3.361 2.349 0 .667-.186 1.228-.587 1.602-.374.345-.801.533-1.681.666l-2.294.321c-1.628.239-2.829.747-3.683 1.574-.907.907-1.361 2.135-1.361 3.735 0 3.389 2.509 5.764 6.617 5.764 2.616 0 4.51-.641 6.138-2.214l-2.349-2.322c-1.199 1.148-2.641 1.307-3.895 1.307-1.974 0-2.936-1.093-2.936-2.401 0-.48.161-.988.562-1.36.372-.347.987-.641 1.761-.748l2.241-.32c1.734-.241 2.829-.721 3.629-1.467 1.014-.962 1.467-2.349 1.467-4.03 0-3.682-3.068-5.763-7.045-5.763m11.886.159v19h12.515V54.82h-8.806v-4.457h7.497v-3.308h-7.497v-4.617h8.806v-3.309zm28.72 0-7.523 11.661V39.129h-3.71v19h3.309l7.526-11.635v11.635h3.708v-19zm16.343 15.691V39.129h-3.71V54.82h-4.962v3.309h13.636V54.82zm9.321-15.691v19h12.514V54.82h-8.805v-4.457h7.498v-3.308h-7.498v-4.617h8.805v-3.309zm26.775 14.516c-.641.774-1.495 1.175-2.776 1.175h-2.801V42.438h2.801c1.281 0 2.135.401 2.776 1.175.694.854.801 2.214.801 5.095 0 2.882-.107 4.083-.801 4.937m2.588-12.702c-1.254-1.254-3.041-1.814-5.017-1.814h-6.857v19h6.857c1.976 0 3.763-.561 5.017-1.816 2.135-2.134 1.921-4.749 1.921-7.605 0-2.854.214-5.63-1.921-7.765m22.164 6.165h-3.869v-4.67h3.869c1.681 0 2.482 1.067 2.482 2.348s-.801 2.322-2.482 2.322m-.241 7.712h-3.628v-4.376h3.628c1.575 0 2.455.88 2.455 2.188 0 1.307-.88 2.188-2.455 2.188m.615-15.691h-7.953v19h7.632c3.709 0 5.871-2.082 5.871-5.338 0-2.108-1.387-3.468-2.349-3.922 1.148-.533 2.615-1.734 2.615-4.269 0-3.549-2.428-5.471-5.816-5.471m18.208 7.792v-7.792h-3.682v7.792l-5.711 11.208h4.03l3.549-7.658 3.495 7.658h4.03zm228.487 2.869h8.478l14.955 34.485h-8.985l-4.604-12.798-4.883 12.798h-9.172l9.864-22.66zm97.564-3.486h3.955V11.866h-3.955zm73.136-1.117q.745-.79.746-2.001-.001-1.21-.746-2.002-.744-.79-1.955-.791-1.21.001-1.954.791-.744.792-.743 2.002 0 1.21.743 2.001.745.79 1.954.79t1.955-.79M718.827 60.265v13.031q0 4.28-3.21 4.279-1.77 0-2.676-1.185-.91-1.187-.908-3.421V60.265h-8.377v35.367h8.377V81.718q1.022 1.58 2.792 2.443 1.767.86 4.002.86 4.143 0 6.259-2.559 2.118-2.56 2.118-7.585V60.265Zm23.192-40.556q-.559-1.607-1.605-2.724a7.5 7.5 0 0 0-2.49-1.745q-1.441-.626-3.258-.627-1.813 0-3.256.627a7.45 7.45 0 0 0-2.491 1.745q-1.048 1.117-1.606 2.724-.557 1.605-.557 3.559 0 1.956.557 3.561.558 1.603 1.606 2.723a7.5 7.5 0 0 0 2.491 1.744q1.443.627 3.256.628 1.817 0 3.258-.628a7.5 7.5 0 0 0 2.49-1.744q1.046-1.12 1.605-2.723.56-1.605.559-3.561 0-1.954-.559-3.559m1.187 12.262a11.7 11.7 0 0 1-3.792 2.56q-2.19.93-4.748.93t-4.746-.93a11.7 11.7 0 0 1-3.792-2.56q-1.607-1.63-2.514-3.862-.907-2.234-.908-4.841.001-2.605.908-4.84t2.514-3.862a11.7 11.7 0 0 1 3.792-2.56q2.188-.93 4.746-.931 2.558.001 4.748.931a11.7 11.7 0 0 1 3.792 2.56q1.605 1.628 2.513 3.862t.907 4.84q0 2.607-.907 4.841-.908 2.233-2.513 3.862m78.487 2.838h3.955V11.866h-3.955zm-12.282 47.653q2.116-2.56 2.116-7.585V60.265h-8.376v13.031q0 4.28-3.212 4.279-1.768 0-2.675-1.185-.907-1.187-.907-3.421V60.265h-8.377v24.013h8.192l.093-2.98a6.5 6.5 0 0 0 2.72 2.746q1.792.977 4.166.977 4.14 0 6.26-2.559m-70.526-7.539q.79 4.002 4.327 4.001 1.719 0 2.791-1.046 1.068-1.047 1.302-2.955zm16.241-1.908q0 2.793-.814 5.003-.815 2.21-2.351 3.77-1.538 1.558-3.723 2.396-2.188.837-4.886.837-2.793 0-5.096-.929c-1.535-.623-2.862-1.489-3.979-2.607q-1.675-1.675-2.582-4.026-.908-2.349-.909-5.188 0-2.933 1.002-5.304a10.9 10.9 0 0 1 2.884-4.026q1.885-1.653 4.561-2.536 2.676-.886 6.028-.886 2.79 0 5.374.652 2.582.652 4.398 1.862l-2.653 5.351a15.7 15.7 0 0 0-3.235-1q-1.743-.348-3.14-.348-5.726-.001-6.981 4.094h15.822q.28 1.163.28 2.885m19.917-4.887q-1.443-1.581-3.815-1.581-2.373 0-3.817 1.581-1.442 1.583-1.442 4.143t1.442 4.141q1.444 1.583 3.817 1.583 2.372 0 3.815-1.583 1.442-1.582 1.442-4.141t-1.442-4.143m5.631 13.264q-1.768 1.721-4.189 2.676-2.42.953-5.257.953-2.843 0-5.259-.953-2.421-.955-4.188-2.676a12.4 12.4 0 0 1-2.769-4.049q-1.001-2.326-1.001-5.072t1.001-5.072a12.5 12.5 0 0 1 2.769-4.05q1.767-1.722 4.188-2.675 2.416-.955 5.259-.955 2.837 0 5.257.955 2.42.954 4.189 2.675a12.5 12.5 0 0 1 2.768 4.05q1.002 2.326 1.001 5.072 0 2.746-1.001 5.072a12.5 12.5 0 0 1-2.768 4.049m-66.088-48.468q2.14-2.536 2.14-7.422V11.866h-3.955v12.938q0 3.724-1.28 5.444-1.281 1.723-4.071 1.723-3.073 0-4.771-2.025t-1.699-5.654V11.866h-3.955v22.943h3.723l.06-4.073c.53 1.265 1.313 2.3 2.36 3.096q2.14 1.629 5.212 1.629 4.095 0 6.236-2.537m66.94-13.215q-.56-1.607-1.605-2.724a7.5 7.5 0 0 0-2.491-1.745q-1.442-.626-3.257-.627-1.815 0-3.258.627a7.5 7.5 0 0 0-2.49 1.745q-1.047 1.117-1.605 2.724-.558 1.606-.558 3.559 0 1.956.558 3.561.558 1.603 1.605 2.723a7.5 7.5 0 0 0 2.49 1.744q1.443.627 3.258.628 1.815 0 3.257-.628a7.5 7.5 0 0 0 2.491-1.744q1.045-1.12 1.605-2.723.558-1.605.559-3.561-.001-1.953-.559-3.559m1.187 12.262a11.7 11.7 0 0 1-3.794 2.56q-2.187.93-4.746.93t-4.747-.93a11.7 11.7 0 0 1-3.793-2.56q-1.606-1.63-2.512-3.862-.908-2.235-.909-4.841 0-2.605.909-4.84.906-2.234 2.512-3.862a11.7 11.7 0 0 1 3.793-2.56q2.188-.93 4.747-.931 2.559.001 4.746.931a11.7 11.7 0 0 1 3.794 2.56q1.604 1.628 2.512 3.862t.907 4.84q.001 2.606-.907 4.841-.908 2.233-2.512 3.862M639.218 68.432q-1.35-1.466-3.489-1.465-2.142-.001-3.515 1.465-1.371 1.465-1.371 3.839t1.371 3.839q1.374 1.466 3.515 1.465 2.14.001 3.489-1.465 1.35-1.465 1.351-3.839-.001-2.374-1.351-3.839m9.261 15.846h-7.865l-.092-2.793a7.4 7.4 0 0 1-2.863 2.607q-1.791.93-3.978.929-2.375 0-4.421-.977a11 11 0 0 1-3.56-2.699q-1.512-1.722-2.351-4.071-.836-2.352-.837-5.096 0-2.793.814-5.119.815-2.327 2.258-4.002a10.1 10.1 0 0 1 3.443-2.606q2.001-.932 4.422-.932 2.325 0 4.164.909 1.839.908 2.909 2.582l.092-2.745h7.865zM875.295 18.01q0-3.212-2.535-5.073-2.538-1.861-6.818-1.862-2.234 0-4.422.63-2.185.628-3.489 1.604l1.63 2.839q3.022-1.768 6.281-1.769 2.56 0 3.955.885 1.397.885 1.397 2.513 0 .746-.209 1.303-.212.56-.815 1-.606.443-1.675.861-1.071.42-2.793.931-3.77 1.118-5.398 2.746-1.629 1.629-1.629 4.282 0 2.977 2.304 4.77 2.303 1.791 6.213 1.791 1.768 0 3.768-.535 2.002-.535 3.352-1.374l-1.536-2.839q-2.886 1.444-5.584 1.443-4.7.002-4.7-2.838 0-1.441 1.07-2.304 1.07-.86 3.723-1.652 2.233-.65 3.746-1.349 1.511-.698 2.443-1.559.93-.861 1.326-1.954.395-1.094.395-2.49M619.651 42.674h-12.1V11.866h-4.188v30.808h-12.099v3.583h28.387zm-18.359 45.885h2.653q6.049 0 6.049-4.84 0-4.98-6.143-4.98h-2.559zm4.653-16.846 6.189-11.448h10.239l-8.796 14.007q2.56 1.49 3.956 3.978 1.396 2.491 1.395 5.422 0 2.793-.953 5.026-.955 2.234-2.722 3.769-1.768 1.536-4.329 2.351-2.56.814-5.816.814h-12.75V60.265h8.934v11.401h2.559zm22.335-39.649q1.908 0 3.212-.676 1.301-.673 2.094-1.744a6.9 6.9 0 0 0 1.139-2.467c.184-.733.274-1.48.313-2.233h-13.963c.222 1.952.835 3.546 1.855 4.77q1.953 2.35 5.35 2.35m7.702.232a9.7 9.7 0 0 1-3.281 2.327q-1.908.837-4.188.838-2.514 0-4.607-.907a10.5 10.5 0 0 1-3.606-2.561q-1.513-1.651-2.35-3.955t-.838-5.049q0-5.63 3.35-8.772 3.351-3.141 9.401-3.142 2.464 0 4.77.559 2.302.558 3.886 1.536l-1.49 2.885q-3.584-1.442-6.98-1.442-4.422 0-6.748 2.117c-1.292 1.174-2.036 2.88-2.253 5.097h17.703c.032.309.054.59.07.835q.022.374.023 1.351 0 2.56-.744 4.677-.745 2.119-2.118 3.606m206.579-.232q5.956 0 6.747-5.957a4.5 4.5 0 0 0 .116-.884c.002-.026.002-.064.003-.093h-13.843q.329 2.726 1.789 4.538 1.93 2.397 5.188 2.396m7.818.302q-1.35 1.465-3.282 2.281-1.931.813-4.303.814-2.421 0-4.467-.907a10.4 10.4 0 0 1-3.537-2.561q-1.491-1.65-2.328-3.908t-.837-4.909q0-5.77 3.281-8.936 3.28-3.164 9.237-3.165 2.558 0 4.886.606 2.326.605 4.095 1.675l-1.397 2.978q-3.722-1.72-7.398-1.721c-5.391 0-8.31 2.47-8.772 7.4h17.567q.046.465.071.836.022.374.022 1.35 0 2.56-.743 4.631-.745 2.07-2.095 3.536m-187.87-16.59 1.443-2.932q-1.49-.838-3.421-1.303a16.5 16.5 0 0 0-3.886-.466q-2.885 0-5.235.838-2.35.839-4.002 2.421t-2.536 3.816q-.885 2.232-.885 4.979t.908 5.002q.907 2.257 2.537 3.886 1.629 1.628 3.931 2.537 2.303.907 5.049.907 3.677 0 7.074-1.862l-1.535-2.886q-1.21.606-2.606.909-1.397.302-2.746.302-3.956 0-6.259-2.327t-2.304-6.283q0-4.094 2.351-6.398 2.349-2.303 6.492-2.303 2.697 0 5.63 1.163m24.804 17.126q2.164-2.56 2.164-7.4V11.866h-3.955v12.938q0 3.724-1.303 5.444-1.303 1.723-4.095 1.723-3.072 0-4.771-2.025-1.697-2.024-1.697-5.654V11.866h-3.957v34.438h3.957V31.049c.556 1.188 1.344 2.157 2.372 2.898q2.093 1.514 5.027 1.514 4.094 0 6.258-2.559m9.944 26.944a22 22 0 0 0-3.792-.327q-9.074 0-9.074 9.448v8.562h-4.049v6.749h4.049v6.188h8.375v-6.188h7.819l-2.093-6.749h-5.726v-7.12q0-2.187.699-3.047.699-.862 2.374-.862 1.907 0 3.723.699l.838-6.469q-1.305-.557-3.143-.884m111.17-42.791a8.5 8.5 0 0 1 1.651 2.699q.605 1.56.605 3.422 0 1.954-.558 3.583-.558 1.628-1.582 2.768a7 7 0 0 1-2.49 1.769q-1.466.627-3.234.628-1.722 0-3.164-.651a7.45 7.45 0 0 1-2.491-1.815q-1.045-1.164-1.628-2.769-.582-1.605-.582-3.513 0-3.956 2.118-6.26t5.747-2.303q1.674 0 3.117.651a7.6 7.6 0 0 1 2.491 1.791m2.071 17.754h3.862V13.543Q814.36 0 801.935 0q-1.305 0-2.629.163-1.326.163-2.514.442-1.185.278-2.186.653-1.001.37-1.607.836l1.025 3.211q2.84-1.814 7.864-1.815 4.376 0 6.445 2.327t2.07 7.307v2.699a9.3 9.3 0 0 0-2.977-3.164q-2.42-1.583-5.63-1.584-2.422.002-4.422.885a10.2 10.2 0 0 0-3.443 2.465q-1.443 1.584-2.234 3.817-.791 2.235-.79 4.934-.001 2.606.86 4.839.86 2.235 2.398 3.886a11.3 11.3 0 0 0 3.604 2.606q2.072.954 4.492.954 3.024 0 5.351-1.652c1.132-.803 2.06-1.841 2.795-3.098zM529.741 71.796q1.328-.134 2.592-.455l4.513 25.761q-1.282.267-2.589.458zm-13.638-4.565L496.232 84.02a44 44 0 0 1-2.621-3.142l19.824-16.758a17.5 17.5 0 0 0 2.668 3.111m34.652 24.262c-.696.435-1.401.857-2.123 1.252l-12.986-22.621q1.119-.543 2.141-1.233zm9.811-8.404-19.811-16.731q.732-.777 1.366-1.638l19.804 16.723q-.66.84-1.359 1.646m-49.649-24.786a17.5 17.5 0 0 0 1.654 4.389l-24.338 8.925a43 43 0 0 1-1.602-4.416zm34.596-3.943c0-9.678-7.846-17.523-17.523-17.523-8.668 0-15.861 6.295-17.269 14.561l-24.293-8.91a44 44 0 0 1 1.98-5.524l24.144 8.853-19.709-16.675a44 44 0 0 1 4.106-4.948l18.428 15.578-12.022-21.059a43 43 0 0 1 6.046-3.542l11.296 19.785-3.941-22.513a43 43 0 0 1 7.467-1.318l3.678 21.038 3.691-21.051c2.679.224 5.289.69 7.807 1.382l-3.422 19.53 9.855-17.19a43 43 0 0 1 7.617 4.474l-9.046 15.761 13.831-11.681a43.7 43.7 0 0 1 5.884 7.194l-12.36 10.432 15.13-5.546a43.5 43.5 0 0 1 3.22 9.21l-13.283 4.864 14.114.002c.182 1.623.284 3.269.284 4.941 0 1.935-.138 3.835-.381 5.702h-26.325c.643-1.823.996-3.782.996-5.827m-35.047 0c0 .973.084 1.926.236 2.856h-25.856a43 43 0 0 1-.094-2.731c0-.857.032-1.707.08-2.552h25.806c-.11.794-.172 1.603-.172 2.427m7.368 14.275a17.5 17.5 0 0 0 3.037 1.737l-12.988 22.655a43 43 0 0 1-3.02-1.764zm1.16 28.436q1.417.301 2.865.506l4.518-25.771a17.3 17.3 0 0 1-2.873-.504zm576.086 109.432c-2.46.633-3.07.939-3.07 1.876v.042c0 .692.63 1.243 1.83 1.243s2.45-.53 3.71-1.407l1.63 2.365c-1.44 1.162-3.22 1.815-5.3 1.815-2.91 0-4.99-1.713-4.99-4.302v-.041c0-2.833 1.85-3.629 4.73-4.364 2.38-.611 2.87-1.018 2.87-1.812v-.041c0-.837-.77-1.347-2.06-1.347-1.63 0-2.97.673-4.26 1.733l-1.85-2.223c1.71-1.528 3.89-2.282 6.05-2.282 3.08 0 5.24 1.59 5.24 4.424v.04c0 2.489-1.63 3.527-4.53 4.281m18.15 5.729-3.75-6.034-3.75 6.034h-3.39v-14.271h3.08v9.257l3.98-6.035h.08l4.02 6.096v-9.318h3.12v14.271z" style="fill:#100f0d;fill-opacity:1;fill-rule:nonzero;stroke:none" transform="matrix(1.33333 0 0 -1.33333 0 564.248)"/></svg>