<svg xmlns="http://www.w3.org/2000/svg" width="867.699" height="560.506"><path d="m797.551 2059.89 54.711 117.61h220.498l-33.77-78.41c-7.39-17.16-4.73-22.05 11.94-22.05h153.67c16.68 0 23.41 4.89 30.29 22.05l96.32 240.56c5.4 13.48 1.18 17.17-15.09 22.06l-184.46 62.48c-95.42 33.07-137.32 53.9-80.38 176.4l89.43 192.36c52.4 112.71 122.74 166.61 217.43 166.61h262.47c94.69 0 120.14-53.9 78.65-166.61l-40.13-109.02H1456.1l28.11 69.82c6.91 17.14 4.64 22.06-10.25 22.06h-122.25c-14.87 0-21.24-4.92-28.62-22.06l-46.93-109.05c-5.79-13.47-4.1-17.14 12.9-23.28l178.96-61.26c96.14-31.84 139.06-53.9 94.23-176.39l-118.51-323.88c-41.24-112.71-114.86-166.61-227.57-166.61H886.637c-112.699 0-141.524 53.9-89.086 166.61m2428.649 0 10.82 117.61h220.49l-4.5-78.41c-.99-17.16 3.5-22.05 20.17-22.05h153.68c16.68 0 21.58 4.89 22.05 22.05l6.52 240.56c.37 13.48-5.23 17.17-23.32 22.06l-207.79 62.48c-107.76 33.07-157.43 53.9-146.21 176.4l17.61 192.36c10.32 112.71 60.55 166.61 155.24 166.61h262.47c94.69 0 140.27-53.9 140.85-166.61l.56-109.02h-203.02l2.05 69.82c.5 17.14-3.6 22.06-18.49 22.06h-122.25c-14.88 0-19.41-4.92-20.39-22.06l-6.22-109.05c-.77-13.47 2.29-17.14 21.59-23.28l201.82-61.26c108.02-31.84 159.18-53.9 160.08-176.39l2.38-323.88c.83-112.71-52.67-166.61-165.38-166.61h-329.53c-112.7 0-161.64 53.9-151.28 166.61m-1128.03-166.61-93.91 438.28-123.93-127.99-94.81-310.29h-225.41l361.83 1066.28h189.39l-125.21-409.79 334.15 409.79h211l-342.64-433.22 152.1-633.06zm608.14 474.57-122.78 591.71h209.98l58.04-363.84 176.62 363.84h207.92l-315.85-591.71-69.23-474.57H2620.7zm1437.48 395.7h-186.42l-4.49 196.01h553.76l23.84-196.01h-186.42l77.93-870.27h-230.3zm993.67-679.16c16.65 0 20.41 4.9 16.88 22.04l-131.75 639.96c-3.54 17.16-8.8 22.06-23.7 22.06h-150.08c-14.89 0-18.31-4.9-15.33-22.06l110.95-639.96c2.98-17.14 8.59-22.04 25.24-22.04zm-409.51-24.5-101.8 733.06c-15.65 112.71 22.16 166.61 116.84 166.61h289.24c94.69 0 152.93-53.9 180.03-166.61l176.21-733.06c27.1-112.71-13.85-166.61-126.55-166.61h-344.23c-112.7 0-174.09 53.9-189.74 166.61m597.25 899.67h210.01l410.87-560.09-192.7 560.09h187.34l402.48-1066.28h-225.47l-463.48 595.62 179.33-595.62h-222.96zm785.09 0h506.41l95.18-191.11h-323.56l57.39-129.79h184.76l89.32-188.67h-190.65l161.68-365.6h361.74l95.18-191.11h-602.73z" style="fill:#1a3d57;fill-opacity:1;fill-rule:nonzero;stroke:none" transform="matrix(.13333 0 0 -.13333 -102.968 667.939)"/><path d="M5004.61 4304.86c7.57-10.28 12.84-20.83 15.95-31.32 13.57-45.81-14.14-90.66-72.63-108.7-71.89-22.16-163.07 4.59-203.65 59.76-37.75 51.31-18.44 109.13 42.29 134.79 4.57 1.93 9.36 3.68 14.39 5.22 71.89 22.17 163.07-4.58 203.65-59.75" style="fill:#face08;fill-opacity:1;fill-rule:nonzero;stroke:none" transform="matrix(.13333 0 0 -.13333 -102.968 667.939)"/><path d="M4947.25 4223.72c-72.46-17.98-150.06-18.45-218.4-4.75 54.1-61.94 154.37-91.48 233.62-66.24 59.35 18.91 91.13 63.55 88.22 113.2-28.1-17.54-62.84-32.14-103.44-42.21m-45.81-34.3 52.01-125.35" style="fill:#1a3d57;fill-opacity:1;fill-rule:nonzero;stroke:none" transform="matrix(.13333 0 0 -.13333 -102.968 667.939)"/><path d="M4953.45 4060.2c-1.94 0-3.75 1-4.41 2.61l-52.02 125.34c-.84 2.03.46 4.23 2.89 4.93 2.49.7 5.1-.38 5.94-2.4l52.02-125.35c.84-2.02-.46-4.23-2.89-4.92-.52-.15-1.02-.21-1.53-.21" style="fill:#1a3d57;fill-opacity:1;fill-rule:nonzero;stroke:none" transform="matrix(.13333 0 0 -.13333 -102.968 667.939)"/><path d="M4953.45 4051.47c-6.48 0-12.24 3.41-14.36 8.49l-52.01 125.36c-1.33 3.18-1.07 6.6.7 9.63 1.79 3.02 4.88 5.29 8.72 6.38 7.93 2.25 16.57-1.26 19.3-7.8l52.01-125.36c2.72-6.59-1.52-13.76-9.42-16.01-1.57-.45-3.24-.69-4.94-.69" style="fill:#1a3d57;fill-opacity:1;fill-rule:nonzero;stroke:none" transform="matrix(.13333 0 0 -.13333 -102.968 667.939)"/><path d="m5145.45 4064.66 272.58-492.22h-423.05l-188.77 491.63zm-402.62-501.28-128.92 391.92-26.66-127.38 78.27-264.41z" style="fill:#1a3d57;fill-opacity:1;fill-rule:nonzero;stroke:none" transform="matrix(.13333 0 0 -.13333 -102.968 667.939)"/><path d="m4806.21 4064.07-137.97-437.59 194.07-62.97 149.92-4.1z" style="fill:#1a3d57;fill-opacity:1;fill-rule:nonzero;stroke:none" transform="matrix(.13333 0 0 -.13333 -102.968 667.939)"/><path d="m5537.23 3564.49-226.69 390.81h-426.23l149.95-400.65z" style="fill:#aed0d6;fill-opacity:1;fill-rule:nonzero;stroke:none" transform="matrix(.13333 0 0 -.13333 -102.968 667.939)"/><path d="m3456.96 4642.5-220.03-1070.06H4554.7L4290.72 4642.5zM2276.08 3559.41l353.44 680.16h238.12l139.84-109.26-79.95-208.76-153.47-362.14z" style="fill:#1a3d57;fill-opacity:1;fill-rule:nonzero;stroke:none" transform="matrix(.13333 0 0 -.13333 -102.968 667.939)"/><path d="m2157.76 3563.51 192.28 321.19h157.25l-152.64-321.19z" style="fill:#669fb6;fill-opacity:1;fill-rule:nonzero;stroke:none" transform="matrix(.13333 0 0 -.13333 -102.968 667.939)"/><path d="M2823.61 4280.95h463.9l75.94-270.97h-441.21z" style="fill:#1a3d57;fill-opacity:1;fill-rule:nonzero;stroke:none" transform="matrix(.13333 0 0 -.13333 -102.968 667.939)"/><path d="m3071.6 4139.21 48.57-79.9-77.81 3.56z" style="fill:#1a3d57;fill-opacity:1;fill-rule:nonzero;stroke:none" transform="matrix(.13333 0 0 -.13333 -102.968 667.939)"/><path d="M2969.73 4237.67h201.91l-27.56-86.43-204.99.32z" style="fill:#669fb6;fill-opacity:1;fill-rule:nonzero;stroke:none" transform="matrix(.13333 0 0 -.13333 -102.968 667.939)"/><path d="m3364.2 4554.16 92.76-391.31-75.36-223.3-94.09 341.4z" style="fill:#1a3d57;fill-opacity:1;fill-rule:nonzero;stroke:none" transform="matrix(.13333 0 0 -.13333 -102.968 667.939)"/><path d="M2959 4554.43h405.2l-76.69-273.48h-463.9z" style="fill:#face08;fill-opacity:1;fill-rule:nonzero;stroke:none" transform="matrix(.13333 0 0 -.13333 -102.968 667.939)"/><path d="M2710.62 4107.47h765.77l-79.89-544.2-944.98.24z" style="fill:#aed0d6;fill-opacity:1;fill-rule:nonzero;stroke:none" transform="matrix(.13333 0 0 -.13333 -102.968 667.939)"/><path d="m4191.79 4580.26-79.19-499.93 16.76-518.19 247.84-.06zm-2118.71-1046.4h3566.19L4564.82 3217.9H3160z" style="fill:#1a3d57;fill-opacity:1;fill-rule:nonzero;stroke:none" transform="matrix(.13333 0 0 -.13333 -102.968 667.939)"/><path d="m4933.17 3559.41-375.03 1020.85H4156l154.26-1018.18z" style="fill:#669fb6;fill-opacity:1;fill-rule:nonzero;stroke:none" transform="matrix(.13333 0 0 -.13333 -102.968 667.939)"/><path d="m3639.89 4502.33 78.45-412.86-37.45-526.2-160.47.23z" style="fill:#1a3d57;fill-opacity:1;fill-rule:nonzero;stroke:none" transform="matrix(.13333 0 0 -.13333 -102.968 667.939)"/><path d="M4047.19 4790.33h-384.7L3528.5 3563.27l658.55-1.13z" style="fill:#aed0d6;fill-opacity:1;fill-rule:nonzero;stroke:none" transform="matrix(.13333 0 0 -.13333 -102.968 667.939)"/><path d="M4022.83 4970.34h-336.81l-11.77-90h360.76z" style="fill:#face08;fill-opacity:1;fill-rule:nonzero;stroke:none" transform="matrix(.13333 0 0 -.13333 -102.968 667.939)"/><path d="M4035.01 4880.34h-360.76l-11.76-90.01h384.7z" style="fill:#1a3d57;fill-opacity:1;fill-rule:nonzero;stroke:none" transform="matrix(.13333 0 0 -.13333 -102.968 667.939)"/><path d="m5639.27 3533.86-21.12 51.1h-3519.9l-25.17-51.1z" style="fill:#aed0d6;fill-opacity:1;fill-rule:nonzero;stroke:none" transform="matrix(.13333 0 0 -.13333 -102.968 667.939)"/><path d="m3725.87 5009.54-5.12-39.2h269.46l-5.3 39.2z" style="fill:#face08;fill-opacity:1;fill-rule:nonzero;stroke:none" transform="matrix(.13333 0 0 -.13333 -102.968 667.939)"/><path d="M6509.53 1202.22c-3.41 8.87-9.55 12.97-17.74 12.97h-49.13c-8.19 0-14.33-4.1-17.75-12.97l-79.84-217.681-81.89 217.681c-3.41 8.87-9.55 12.97-17.74 12.97h-48.45c-8.19 0-14.32-4.1-17.74-12.97l-80.52-217.681-80.52 217.681c-3.42 8.87-9.56 12.97-17.75 12.97h-48.45c-8.19 0-14.33-4.1-17.74-12.97l-81.21-217.681-80.52 217.681c-3.41 8.87-9.56 12.97-17.75 12.97h-49.13c-8.18 0-14.33-4.1-17.74-12.97l-113.96-298.208c-3.41-8.18.68-16.371 10.92-16.371h43.67c8.19 0 15.01 4.089 17.74 12.281l83.94 225.188 83.94-225.188c3.41-8.883 9.55-12.281 17.73-12.281h40.27c8.19 0 14.33 3.398 17.74 12.281l85.98 225.188 83.26-225.188c3.41-8.192 9.55-12.281 17.74-12.281h42.31c8.19 0 14.33 4.089 17.74 12.281l83.94 225.188 85.3-225.188c3.4-8.883 9.55-12.281 17.74-12.281h40.26c8.19 0 14.33 3.398 17.74 12.281l84.62 223.828 83.25-223.828c2.73-8.192 9.56-12.281 17.74-12.281h45.05c10.23 0 14.32 8.191 10.91 16.371zM5194.64 959.969c-8.18 10.91-16.37 7.511-23.88 3.41-17.74-10.238-37.53-19.789-62.1-19.789-59.37 0-98.95 47.09-98.95 107.82 0 60.74 39.58 108.51 98.95 108.51 24.57 0 45.72-8.88 63.46-19.8 7.51-4.77 16.38-7.5 23.89 2.73l19.11 26.61c8.19 11.61 1.36 19.11-3.42 22.53-27.97 21.15-64.82 32.75-105.09 32.75-101.68 0-169.23-75.06-169.23-173.33 0-98.269 67.55-172.648 169.23-172.648 40.27 0 77.12 11.609 105.09 32.758 4.78 3.41 12.29 11.601 3.42 22.519zm-615.52-15.699c-58.69 0-100.32 47.781-100.32 107.14 0 60.05 41.63 106.46 100.32 106.46 58 0 100.31-46.41 100.31-106.46 0-59.359-42.31-107.14-100.31-107.14m155.58 270.92h-40.26c-8.19 0-15.69-6.83-15.69-15.69v-27.31c-20.47 30.71-60.05 52.55-107.14 52.55-88.71 0-165.14-70.29-165.14-172.65 0-103.719 76.43-173.328 164.45-173.328 47.78 0 86.67 21.84 107.83 52.539v-28.649c0-8.191 7.5-15.011 15.69-15.011h40.26c8.19 0 15.02 6.82 15.02 15.011V1199.5c0 8.86-6.83 15.69-15.02 15.69m-875.6-231.088-31.31 81.638c-2.73 6.82-8.19 12.97-20.47 12.97h-40.95c-10.23 0-18.42-6.83-13.64-19.79l41.37-107.381c-13.72-3.398-28.23-5.219-43.42-5.219-101 0-172.65 79.16-172.65 182.89 0 103.72 71.65 182.88 172.65 182.88 100.99 0 172.65-79.16 172.65-182.88 0-60.23-24.19-112.13-64.23-145.108m-108.42 395.548c-137.85 0-249.08-107.14-249.08-250.44 0-143.312 111.23-250.448 249.08-250.448 23.58 0 46.35 3.207 67.94 9.117l26.92-69.848c2.72-7.511 8.18-12.289 18.42-12.289h42.99c10.24 0 17.74 6.828 12.96 19.797l-35.05 91.402c69.14 43.438 114.9 120.389 114.9 212.269 0 143.3-111.23 250.44-249.08 250.44m593.69-164.46h-40.26c-7.51 0-15.01-6.83-15.01-15.01v-169.92c0-52.549-32.76-90.08-88.04-90.08-56.64 0-85.29 36.16-85.29 90.76v169.24c0 8.18-6.83 15.01-15.02 15.01h-40.26c-8.19 0-15.7-6.83-15.7-15.01v-180.84c0-83.942 52.55-140.578 137.85-140.578 51.18 0 85.98 20.48 106.46 50.5v-27.293c0-8.188 7.5-14.328 15.01-14.328h40.26c8.19 0 15.7 6.82 15.7 15.011v296.838c0 8.87-7.51 15.7-15.7 15.7m531.59 155.59h-40.26c-8.19 0-15.7-7.51-15.7-15.7V903.332c0-8.191 7.51-15.703 15.7-15.703h40.26c8.87 0 15.02 7.512 15.02 15.703v451.748c0 8.19-6.15 15.7-15.02 15.7m528.86-425.819c-58.68 0-100.31 47.09-100.31 106.449 0 60.05 41.63 106.46 100.31 106.46 58.69 0 100.32-46.41 100.32-106.46 0-59.359-41.63-106.449-100.32-106.449m0 279.099c-95.53 0-171.96-75.07-171.96-172.65 0-98.269 76.43-172.648 171.96-172.648 95.54 0 171.97 74.379 171.97 172.648 0 97.58-76.43 172.65-171.97 172.65m-4025.69-64.4c0 15.34-9.25 25.12-23 25.12h-25.38v-50.23h25.38c13.75 0 23 10.04 23 25.11m-83.8-120.01v176.32h65.03c36.48 0 54.99-26.17 54.99-56.31 0-30.13-18.51-56.04-54.99-56.04h-29.61v-63.97zm235.84 120.01c0 15.34-9.25 25.12-23 25.12h-25.38v-50.23h25.38c13.75 0 23 9.78 23 25.11m-1.85-120.01-27.23 63.7h-19.3v-63.7h-35.42v176.32h65.82c32.52 0 54.2-23.26 54.2-55.77 0-30.41-16.39-45.74-31.2-50.5l32.52-70.05zm74.85 0v176.32h101.25v-31.19h-65.83v-39.92h63.97v-30.93h-63.97v-43.09h65.83v-31.19zm126.92 19.82 17.19 27.5c9.78-11.11 25.38-19.04 42.82-19.04 16.13 0 24.32 8.73 24.32 19.57 0 31.19-79.04 20.09-79.04 79.83 0 27.76 21.68 51.55 58.16 51.55 21.68 0 40.18-7.14 53.67-19.56l-16.66-26.97c-10.57 10.31-24.32 15.07-37.8 15.07-12.95 0-21.15-7.4-21.15-17.97 0-27.77 78.78-19.83 78.78-79.04 0-30.67-20.89-53.94-60.01-53.94-26.7 0-46.27 8.73-60.28 23m153.9-19.82v176.32h101.25v-31.19h-65.83v-39.92h63.97v-30.93h-63.97v-43.09h65.83v-31.19zm233.98 0-60.53 107.59v-107.59h-35.43v176.32h35.95l58.43-103.62v103.62h35.42v-176.32zm105.26 0v145.13h-39.39v31.19h114.2v-31.19h-39.39v-145.13zm106.83 0v176.32h101.25v-31.19h-65.83v-39.92h63.98v-30.93h-63.98v-43.09h65.83v-31.19zm235.84 88.03c0 35.16-14.01 57.1-40.71 57.1h-21.68v-113.94h21.42c26.43 0 40.97 23 40.97 56.84m-97.81-88.03v176.32h56.84c49.43 0 77.45-37.01 77.45-88.29 0-51.55-28.02-88.03-77.19-88.03zm321.52 52.6c0 12.16-7.14 21.68-20.62 21.68h-30.67v-43.09h30.67c13.21 0 20.62 7.67 20.62 21.41m-2.91 72.7c0 11.63-6.35 19.83-19.04 19.83h-29.34v-39.92h29.34c12.69 0 19.04 7.93 19.04 20.09m-83.8-125.3v176.32h73.22c31.73 0 46.8-20.88 46.8-44.94 0-21.94-12.43-36.48-28.55-40.45 17.97-2.9 31.46-21.41 31.46-43.08 0-26.97-15.08-47.85-47.33-47.85zm190.11 0v72.7l-54.99 103.62h39.12l33.58-70.84 33.31 70.84h39.13l-54.73-103.62v-72.7z" style="fill:#100f0d;fill-opacity:1;fill-rule:nonzero;stroke:none" transform="matrix(.13333 0 0 -.13333 -102.968 667.939)"/><path d="m7165.57 1902.76 4.47 5.73c3.85-4.48 10.29-8.59 18.7-8.59 10.64 0 14.04 5.72 14.04 10.38 0 15.38-35.34 6.8-35.34 28.09 0 9.84 8.77 16.64 20.58 16.64 9.04 0 16.1-3.13 21.11-8.41l-4.47-5.46c-4.47 5.01-10.73 7.16-17.27 7.16-7.06 0-12.25-3.85-12.25-9.48 0-13.42 35.33-5.73 35.33-28 0-8.59-5.9-17.54-22-17.54-10.29 0-17.99 3.94-22.9 9.48m107-8.4v50.19l-20.22-50.19h-3.04l-20.31 50.19v-50.19h-7.42v59.67h10.65l18.6-45.99 18.53 45.99H7280v-59.67z" style="fill:#1a3d57;fill-opacity:1;fill-rule:nonzero;stroke:none" transform="matrix(.13333 0 0 -.13333 -102.968 667.939)"/></svg>