<?xml version="1.0" encoding="UTF-8" standalone="no"?>
<svg
   width="1798.4141"
   height="615.98462"
   version="1.1"
   id="svg79"
   xmlns="http://www.w3.org/2000/svg"
   xmlns:svg="http://www.w3.org/2000/svg">
  <defs
     id="defs5">
    <clipPath
       id="a"
       clipPathUnits="userSpaceOnUse">
      <path
         d="M 0,0 H 16566.8 V 7699.43 H 0 Z"
         id="path2" />
    </clipPath>
  </defs>
  <g
     clip-path="url(#a)"
     transform="matrix(0.13333,0,0,-0.13333,-205.10554,821.30613)"
     id="g77">
    <path
       d="m 14912,3602.92 c -3.4,8.84 -9.5,12.92 -17.7,12.92 h -49 c -8.1,0 -14.3,-4.08 -17.7,-12.92 l -79.6,-217.02 -81.6,217.02 c -3.4,8.84 -9.5,12.92 -17.7,12.92 h -48.3 c -8.1,0 -14.3,-4.08 -17.7,-12.92 l -80.2,-217.02 -80.3,217.02 c -3.4,8.84 -9.5,12.92 -17.7,12.92 h -48.3 c -8.2,0 -14.3,-4.08 -17.7,-12.92 l -81,-217.02 -80.2,217.02 c -3.4,8.84 -9.6,12.92 -17.7,12.92 h -49 c -8.2,0 -14.3,-4.08 -17.7,-12.92 l -113.6,-297.29 c -3.4,-8.17 0.7,-16.33 10.9,-16.33 h 43.5 c 8.2,0 15,4.07 17.7,12.24 l 83.7,224.5 83.7,-224.5 c 3.4,-8.84 9.5,-12.24 17.7,-12.24 h 40.1 c 8.2,0 14.3,3.4 17.7,12.24 l 85.7,224.5 83,-224.5 c 3.4,-8.17 9.5,-12.24 17.7,-12.24 h 42.2 c 8.1,0 14.2,4.07 17.7,12.24 l 83.6,224.5 85.1,-224.5 c 3.4,-8.84 9.5,-12.24 17.7,-12.24 h 40.1 c 8.2,0 14.3,3.4 17.7,12.24 l 84.3,223.14 83,-223.14 c 2.8,-8.17 9.6,-12.24 17.7,-12.24 h 44.9 c 10.2,0 14.3,8.16 10.9,16.33 z m -1310.8,-241.51 c -8.2,10.88 -16.4,7.48 -23.9,3.39 -17.6,-10.2 -37.4,-19.72 -61.9,-19.72 -59.1,0 -98.6,46.94 -98.6,107.49 0,60.55 39.5,108.17 98.6,108.17 24.5,0 45.6,-8.85 63.3,-19.73 7.5,-4.76 16.3,-7.48 23.8,2.72 l 19.1,26.53 c 8.1,11.57 1.3,19.05 -3.4,22.45 -27.9,21.09 -64.7,32.66 -104.8,32.66 -101.4,0 -168.7,-74.84 -168.7,-172.8 0,-97.97 67.3,-172.12 168.7,-172.12 40.1,0 76.9,11.57 104.8,32.66 4.7,3.4 12.2,11.56 3.4,22.45 z m -613.7,-15.65 c -58.5,0 -100,47.62 -100,106.8 0,59.87 41.5,106.14 100,106.14 57.8,0 100,-46.27 100,-106.14 0,-59.18 -42.2,-106.8 -100,-106.8 m 155.1,270.08 h -40.1 c -8.2,0 -15.7,-6.8 -15.7,-15.64 v -27.22 c -20.4,30.61 -59.8,52.39 -106.8,52.39 -88.4,0 -164.6,-70.08 -164.6,-172.12 0,-103.41 76.2,-172.8 164,-172.8 47.6,0 86.4,21.77 107.4,52.38 v -28.57 c 0,-8.16 7.5,-14.96 15.7,-14.96 h 40.1 c 8.2,0 15,6.8 15,14.96 v 295.94 c 0,8.84 -6.8,15.64 -15,15.64 m -872.9,-230.38 -31.2,81.4 c -2.7,6.8 -8.2,12.92 -20.4,12.92 h -40.8 c -10.2,0 -18.4,-6.8 -13.6,-19.73 l 41.2,-107.05 c -13.7,-3.38 -28.1,-5.2 -43.3,-5.2 -100.7,0 -172.1,78.92 -172.1,182.32 0,103.41 71.4,182.32 172.1,182.32 100.7,0 172.1,-78.91 172.1,-182.32 0,-60.04 -24.1,-111.78 -64,-144.66 m -108.1,394.33 c -137.4,0 -248.3,-106.8 -248.3,-249.67 0,-142.86 110.9,-249.67 248.3,-249.67 23.5,0 46.2,3.19 67.8,9.09 l 26.8,-69.64 c 2.7,-7.48 8.2,-12.24 18.4,-12.24 h 42.8 c 10.2,0 17.7,6.8 12.9,19.73 l -34.9,91.12 c 68.9,43.31 114.5,120.03 114.5,211.61 0,142.87 -110.8,249.67 -248.3,249.67 m 591.9,-163.95 h -40.1 c -7.5,0 -15,-6.8 -15,-14.97 v -169.39 c 0,-52.38 -32.7,-89.8 -87.8,-89.8 -56.4,0 -85,36.05 -85,90.48 v 168.71 c 0,8.17 -6.8,14.97 -15,14.97 h -40.1 c -8.2,0 -15.7,-6.8 -15.7,-14.97 v -180.28 c 0,-83.68 52.4,-140.14 137.5,-140.14 51,0 85.7,20.41 106.1,50.35 v -27.22 c 0,-8.16 7.5,-14.28 15,-14.28 h 40.1 c 8.2,0 15.6,6.8 15.6,14.96 v 295.94 c 0,8.84 -7.4,15.64 -15.6,15.64 m 530,155.11 h -40.2 c -8.1,0 -15.6,-7.48 -15.6,-15.65 v -450.36 c 0,-8.16 7.5,-15.65 15.6,-15.65 h 40.2 c 8.8,0 14.9,7.49 14.9,15.65 v 450.36 c 0,8.17 -6.1,15.65 -14.9,15.65 m 527.2,-424.51 c -58.5,0 -100,46.94 -100,106.12 0,59.87 41.5,106.14 100,106.14 58.5,0 100,-46.27 100,-106.14 0,-59.18 -41.5,-106.12 -100,-106.12 m 0,278.24 c -95.3,0 -171.5,-74.83 -171.5,-172.12 0,-97.96 76.2,-172.11 171.5,-172.11 95.2,0 171.4,74.15 171.4,172.11 0,97.29 -76.2,172.12 -171.4,172.12 m -1098.9,779.96 c 0,15.29 -9.2,25.04 -23,25.04 h -25.3 v -50.08 h 25.3 c 13.8,0 23,10.02 23,25.04 M 12628.2,4285 v 175.78 h 64.9 c 36.3,0 54.8,-26.09 54.8,-56.14 0,-30.04 -18.5,-55.87 -54.8,-55.87 h -29.6 V 4285 Z m 235.2,119.64 c 0,15.29 -9.3,25.04 -23,25.04 h -25.3 v -50.08 h 25.3 c 13.7,0 23,9.76 23,25.04 m -1.9,-119.64 -27.1,63.51 h -19.3 V 4285 h -35.3 v 175.78 h 65.6 c 32.4,0 54.1,-23.19 54.1,-55.6 0,-30.32 -16.4,-45.6 -31.1,-50.35 l 32.4,-69.83 z m 74.6,0 v 175.78 h 101 v -31.1 h -65.7 v -39.79 h 63.8 v -30.84 h -63.8 v -42.96 h 65.7 V 4285 Z m 126.6,19.76 17.1,27.41 c 9.7,-11.07 25.3,-18.98 42.7,-18.98 16.1,0 24.2,8.7 24.2,19.51 0,31.09 -78.8,20.02 -78.8,79.59 0,27.67 21.6,51.39 58,51.39 21.6,0 40.1,-7.12 53.5,-19.51 l -16.6,-26.88 c -10.5,10.28 -24.2,15.03 -37.7,15.03 -12.9,0 -21.1,-7.38 -21.1,-17.93 0,-27.67 78.6,-19.76 78.6,-78.79 0,-30.58 -20.8,-53.77 -59.9,-53.77 -26.6,0 -46.1,8.7 -60,22.93 m 153.4,-19.76 v 175.78 h 100.9 v -31.1 h -65.6 v -39.79 h 63.8 v -30.84 h -63.8 v -42.96 h 65.6 V 4285 Z m 233.3,0 -60.4,107.26 V 4285 h -35.3 v 175.78 h 35.8 l 58.3,-103.31 v 103.31 h 35.3 V 4285 Z m 104.9,0 v 144.68 h -39.3 v 31.1 h 113.9 v -31.1 h -39.3 V 4285 Z m 106.5,0 v 175.78 h 100.9 v -31.1 h -65.6 v -39.79 h 63.8 v -30.84 h -63.8 v -42.96 h 65.6 V 4285 Z m 235.1,87.75 c 0,35.05 -14,56.93 -40.6,56.93 h -21.6 v -113.59 h 21.3 c 26.4,0 40.9,22.93 40.9,56.66 m -97.5,-87.75 v 175.78 h 56.6 c 49.3,0 77.3,-36.9 77.3,-88.03 0,-51.39 -28,-87.75 -77,-87.75 z m 320.5,52.44 c 0,12.13 -7.1,21.61 -20.5,21.61 h -30.6 v -42.96 h 30.6 c 13.1,0 20.5,7.65 20.5,21.35 m -2.9,72.48 c 0,11.59 -6.3,19.76 -19,19.76 h -29.2 v -39.79 h 29.2 c 12.7,0 19,7.9 19,20.03 M 14032.5,4285 v 175.78 h 73 c 31.6,0 46.6,-20.82 46.6,-44.8 0,-21.87 -12.4,-36.38 -28.4,-40.33 17.9,-2.9 31.3,-21.34 31.3,-42.95 0,-26.88 -15,-47.7 -47.2,-47.7 z m 189.5,0 v 72.47 l -54.8,103.31 h 39 l 33.5,-70.63 33.2,70.63 h 39 l -54.6,-103.31 V 4285 Z"
       style="fill:#100f0d;fill-opacity:1;fill-rule:nonzero;stroke:none"
       id="path7" />
    <path
       d="m 6447.01,1539.95 c -377.57,0 -747.16,105.68 -1068.83,305.63 -303.89,188.89 -551.5,453.26 -718.86,766.83 l -2662.89,-123.82 -13,0.97 c -16.89,0.56 -33.83,2.06 -50.47,4.46 h -34.85 l -71.11,28.57 c -52.11,20.97 -99.36,50.92 -140.48,89.02 -94.09,86.57 -148.19,209.98 -148.19,338.38 v 1804.4 c 0,254.03 206.72,460.7 460.81,460.7 H 4421.4 v 365.6 c 0,319.41 259.85,579.26 579.26,579.26 h 2892.63 c 319.44,0 579.34,-259.85 579.34,-579.26 v -365.6 h 2422.27 c 254,0 460.7,-206.67 460.7,-460.7 v -1804.4 c 0,-251.46 -204.5,-458.12 -456,-460.69 l -18.5,-0.02 -2.1,0.1 -2641.02,129.06 C 8071.16,2303.1 7823.57,2037.26 7519.17,1847.31 7196.95,1646.24 6826.21,1539.95 6447.01,1539.95"
       style="fill:#ffffff;fill-opacity:1;fill-rule:nonzero;stroke:none"
       id="path9" />
    <path
       d="m 4758.33,2782.54 24.04,-48.13 c 153.56,-307.29 389.77,-566.09 683.1,-748.42 295.43,-183.63 634.85,-280.71 981.54,-280.71 348.21,0 688.7,97.62 984.63,282.29 293.83,183.35 530,443.64 682.99,752.71 l 24.03,48.54 2746.34,-134.22 13.7,0.02 c 160.4,1.64 291.6,134.15 291.6,295.37 v 1804.4 c 0,162.86 -132.5,295.38 -295.4,295.38 H 8307.3 v 530.92 c 0,228.24 -185.73,413.93 -414.01,413.93 H 5000.66 c -228.24,0 -413.94,-185.69 -413.94,-413.93 V 5049.77 H 1999.14 c -162.92,0 -295.48,-132.52 -295.48,-295.38 v -1804.4 c 0,-82.3 34.63,-161.36 95.02,-216.92 26.49,-24.54 56.71,-43.69 90.02,-57.09 l 41.39,-16.64 h 15.66 l 6.5,-1.04 c 12.42,-1.98 25.19,-3.17 37.93,-3.54 l 8.62,-0.55 z"
       style="fill:#100f0d;fill-opacity:1;fill-rule:nonzero;stroke:none"
       id="path11" />
    <path
       d="m 6425.11,3126.12 c -248.35,-0.27 -493.54,-5.88 -736.42,-18.82 -43.39,-2.32 -86.73,-4.79 -129.98,-7.59 41.3,-75.74 92.81,-147.47 154.63,-213.16 390.42,-414.84 1045.54,-434.7 1460.37,-44.29 80.97,76.2 146.81,162.51 197.58,255.12 -304.91,20.58 -613.27,28.8 -926.98,28.8 -6.4,0 -12.79,-0.05 -19.2,-0.06 m 1061.16,2016.9 -48.98,30.29 -148.86,92.08 -59.5,36.81 508.78,253.24 119.58,59.52 -85.79,-109.12 z m -1882.25,124 -145.27,-89.86 -48.97,-30.29 -280.04,356.22 -83.02,105.6 119.58,-59.52 495.3,-246.53 z m 1939.27,-181.54 396.18,503.96 28.4,36.13 c -15.05,9.44 -31.92,16.19 -50.02,19.53 -8.47,1.57 -175.4,2.49 -175.4,2.49 l -593.96,-295.63 -55.65,34.42 -422.29,261.21 h -152.8 l 490.42,-303.36 55.65,-34.42 -520,-258.82 -33.56,-16.71 -24.37,-12.13 v 625.44 h -80.38 v -625.44 l -22.21,11.06 -35.73,17.78 -520.86,259.25 57.57,35.62 487.8,301.73 h -152.81 l -419.66,-259.58 -57.58,-35.62 -593.07,295.2 h -149.33 c -8.91,0 -17.6,-0.92 -26.08,-2.48 a 142.5,142.5 0 0 1 -44.82,-16.39 l 33.03,-42.02 388.88,-494.68 -32.35,-51.43 -52.44,-83.33 h 94.98 l 10.21,16.23 32.36,51.42 53.2,-67.65 h 102.24 l -99.06,126.01 48.97,30.29 179.94,111.31 57.58,35.62 601.3,-299.29 7.93,-3.94 h 180.4 l 7.92,3.94 600.43,298.86 59.51,-36.81 183.54,-113.54 48.97,-30.29 -96.04,-122.16 h 102.26 l 48.04,61.11 32.36,-51.43 6.1,-9.68 h 94.97 l -48.32,76.79 z m -2687.38,-57.15 55.87,-71.07 h 102.25 l -158.12,201.13 z m 3029.14,-71.07 h 102.25 l 48.19,61.29 v 130.06 z"
       style="fill:#e0ed54;fill-opacity:1;fill-rule:nonzero;stroke:none"
       id="path13" />
    <path
       d="m 7235.21,2183.98 c -238.71,-136.41 -511.11,-208.51 -787.72,-208.51 -168.54,0 -334.49,26.22 -493.21,77.95 -21.11,6.9 -43.81,-4.66 -50.68,-25.75 -6.88,-21.12 4.65,-43.8 25.76,-50.68 166.79,-54.36 341.12,-81.92 518.13,-81.92 290.59,0 576.77,75.77 827.61,219.1 19.28,11.02 25.98,35.57 14.96,54.85 -11.03,19.28 -35.57,25.98 -54.85,14.96 m 245.17,172.61 c -16.87,-14.43 -18.85,-39.81 -4.42,-56.68 7.94,-9.3 19.22,-14.07 30.56,-14.07 9.25,0 18.54,3.17 26.11,9.65 232.11,198.49 402.43,453.35 497.72,735.75 -27.14,3.69 -54.29,7.25 -81.46,10.69 -91.63,-262.8 -251.7,-499.93 -468.51,-685.34 M 5721.97,2150.24 c -251.88,129.39 -465.42,324.31 -617.54,563.7 -65.67,103.35 -118.53,213.4 -158.42,327.87 -27.15,-3.44 -54.28,-7.03 -81.39,-10.72 42.48,-125.95 99.93,-246.93 171.96,-360.27 159.77,-251.44 384.07,-456.18 648.66,-592.09 a 40,40 0 0 1 18.33,-4.45 c 14.6,0 28.67,7.97 35.8,21.84 10.14,19.74 2.35,43.98 -17.4,54.12 m -223.34,444.91 c 7.82,-7.65 17.96,-11.46 28.1,-11.46 10.44,0 20.87,4.04 28.74,12.09 15.53,15.87 15.24,41.32 -0.63,56.85 -54.79,53.58 -105.05,112.39 -149.4,174.8 -12.85,18.1 -37.95,22.35 -56.05,9.49 -18.1,-12.86 -22.34,-37.96 -9.48,-56.06 47.11,-66.3 100.51,-128.78 158.72,-185.71 m 1851.7,67.56 c -241.57,-241.55 -562.2,-374.58 -902.84,-374.58 -258.74,0 -508.1,77.28 -721.11,223.51 -18.29,12.55 -43.33,7.91 -55.9,-10.39 -12.56,-18.31 -7.91,-43.33 10.39,-55.9 226.47,-155.46 491.56,-237.63 766.62,-237.63 362.12,0 702.94,141.4 959.69,398.14 15.7,15.7 15.7,41.16 0,56.85 -15.69,15.7 -41.16,15.7 -56.85,0 m 219.54,173.1 c 13.47,0 26.65,6.77 34.25,19.1 23.03,37.33 44.48,76.23 63.77,115.63 15.84,32.38 30.24,65.19 43.36,98.37 -27.8,2.8 -55.63,5.48 -83.48,8.05 -9.96,-23.91 -20.62,-47.62 -32.1,-71.07 a 1281,1281 0 0 0 -59.98,-108.78 c -11.66,-18.9 -5.79,-43.66 13.11,-55.32 a 39.97,39.97 0 0 1 21.07,-5.98 m -2311.26,121.71 c 5.83,0 11.75,1.27 17.36,3.96 20.02,9.6 28.46,33.61 18.86,53.63 -9.78,20.4 -18.95,40.99 -27.59,61.73 -27.83,-2.57 -55.63,-5.25 -83.41,-8.06 11.78,-29.78 24.53,-59.29 38.51,-88.43 6.91,-14.41 21.29,-22.83 36.27,-22.83 M 2769.24,4477.69 v -965.06 c 0,-23.9 -13.22,-32.18 -36.76,-35.82 l -65.51,-7.29 c -23.6,0 -35.4,11.93 -35.4,35.82 l 0.22,972.35 h -194.55 v -1019.8 c 0,-106.02 57.14,-159.02 171.43,-159.02 l 182.33,27.51 c 115.84,10.21 172.79,53 172.79,159.02 v 992.29 z"
       style="fill:#ffffff;fill-opacity:1;fill-rule:nonzero;stroke:none"
       id="path15" />
    <path
       d="m 2605.83,3342.08 179.34,27.07 2.41,0.28 c 113.64,10.01 135.18,48.48 135.18,115.97 v 392.99 l -112.5,-6.51 v -359.26 c 0,-25.2 -9.33,-68.91 -71.83,-78.56 l -69.29,-7.74 h -2.16 c -46.44,0 -76.44,31.02 -76.44,79.05 l 0.2,352.77 -112.47,-7.54 v -392.71 c 0,-56.8 15.23,-114.85 127.56,-115.81"
       style="fill:#ddebe9;fill-opacity:1;fill-rule:nonzero;stroke:none"
       id="path17" />
    <path
       d="m 3346.12,3547.81 v 929.88 h -193.2 V 3369.65 l 442.2,48.8 v 150.43 z"
       style="fill:#ffffff;fill-opacity:1;fill-rule:nonzero;stroke:none"
       id="path19" />
    <path
       d="m 3305.09,3897.86 -111.14,-4.73 v -475.5 l 360.14,39.74 v 64.7 l -249,-21.06 z"
       style="fill:#ddebe9;fill-opacity:1;fill-rule:nonzero;stroke:none"
       id="path21" />
    <path
       d="M 5208.78,4477.69 5065.9,3888.62 4923.05,4477.69 H 4710.8 v -964.91 l 171.43,9.65 v 654.4 l 112.92,-491.75 142.87,5.85 111.57,487.33 v -637.13 l 171.44,6.8 v 929.76 z"
       style="fill:#ffffff;fill-opacity:1;fill-rule:nonzero;stroke:none"
       id="path23" />
    <path
       d="m 4841.2,3563.37 v 387.39 l -89.37,-2.71 v -389.7 z m 449.43,22.62 89.37,3.54 v 373.62 l -89.37,-1.83 z m -315.11,368.4 51.61,-224.78 78.28,3.21 51.71,225.89 -32.01,-0.57 -58.79,-145.18 -58.9,142.19 z"
       style="fill:#ddebe9;fill-opacity:1;fill-rule:nonzero;stroke:none"
       id="path25" />
    <path
       d="m 3671.31,4477.69 v -150.43 h 157.83 v -884.12 l 194.57,16.69 v 867.43 h 159.19 v 150.43 z"
       style="fill:#ffffff;fill-opacity:1;fill-rule:nonzero;stroke:none"
       id="path27" />
    <path
       d="m 3982.69,3924.45 -112.53,-3.73 v -430.73 l 112.53,9.66 z"
       style="fill:#ddebe9;fill-opacity:1;fill-rule:nonzero;stroke:none"
       id="path29" />
    <path
       d="m 4323.05,4477.69 v -994.28 l 193.2,15.04 v 979.24 z"
       style="fill:#ffffff;fill-opacity:1;fill-rule:nonzero;stroke:none"
       id="path31" />
    <path
       d="m 4364.08,3529.92 111.14,8.64 v 401.98 l -111.14,-3.47 z"
       style="fill:#ddebe9;fill-opacity:1;fill-rule:nonzero;stroke:none"
       id="path33" />
    <path
       d="m 5904.18,4265.67 70.3,-400.11 -142.4,-2.38 z M 6028,4477.69 h -247.62 l -198.96,-925.21 193.3,5.46 29.33,152.27 198.22,3.71 31.18,-147.39 h 195.93 z"
       style="fill:#ffffff;fill-opacity:1;fill-rule:nonzero;stroke:none"
       id="path35" />
    <path
       d="m 5997.08,3974.5 26.57,-151.33 -241.22,-4.02 27.23,151.98 -96.47,-1.49 -80.09,-372.49 107.9,3.06 29.39,152.59 264.65,4.93 31.3,-147.99 h 111.37 l -81,366.46 z"
       style="fill:#ddebe9;fill-opacity:1;fill-rule:nonzero;stroke:none"
       id="path37" />
    <path
       d="m 6282.29,4477.69 v -150.43 h 157.82 v -760.73 h 194.58 v 760.73 h 159.18 v 150.43 z"
       style="fill:#ffffff;fill-opacity:1;fill-rule:nonzero;stroke:none"
       id="path39" />
    <path
       d="m 6593.66,3978.9 h -112.52 v -369.16 h 112.52 z"
       style="fill:#ddebe9;fill-opacity:1;fill-rule:nonzero;stroke:none"
       id="path41" />
    <path
       d="m 7124.48,3716.96 v 146.4 l 227.34,-5.25 v 150.43 l -227.34,5.25 v 313.47 h 266.68 v 150.43 H 6929.9 v -911.16 l 472.13,-12.47 v 150.42 z"
       style="fill:#ffffff;fill-opacity:1;fill-rule:nonzero;stroke:none"
       id="path43" />
    <path
       d="m 7083.45,3907.52 227.34,-5.26 v 64.01 l -186.73,4.31 -153.13,1.64 V 3608.67 L 7361,3598.36 v 64.72 l -277.55,12.49 z"
       style="fill:#ddebe9;fill-opacity:1;fill-rule:nonzero;stroke:none"
       id="path45" />
    <path
       d="m 8396.57,4182.57 v 137.53 c 0,105.07 -57.14,157.59 -171.44,157.59 h -175.52 c -114.3,0 -171.44,-52.52 -171.44,-157.59 v -640.45 c 0,-105.07 57.14,-157.59 171.44,-157.59 l 175.52,-11.96 c 114.3,0 171.44,52.52 171.44,157.59 v 318.42 l -263.48,7.78 v -132.11 l 68.03,-3.99 0.16,-161.42 c 0,-13.4 -2.73,-22.72 -8.18,-27.95 -5.42,-5.27 -14.96,-7.86 -28.56,-7.86 l -55.06,1.91 c -13.6,0 -23.12,2.6 -28.57,7.87 -5.45,5.23 -8.16,14.54 -8.16,27.95 v 603.2 c 0,23.84 12.23,35.81 36.73,35.81 h 55.78 c 24.5,0 36.75,-11.97 36.75,-35.81 v -118.92 z"
       style="fill:#ffffff;fill-opacity:1;fill-rule:nonzero;stroke:none"
       id="path47" />
    <path
       d="M 8031.72,3698.29 V 3952 l -112.52,3.67 v -276.03 c 0,-56.55 15.5,-114.38 130.4,-114.38 h 1.33 l 175.48,-11.95 c 113.76,0.43 129.13,58.03 129.13,114.38 v 276.41 l -181.43,5.37 v -46.81 l 67.99,-4 0.22,-202.28 c 0,-25.99 -7.25,-46.14 -21.43,-59.72 -13.35,-12.97 -31.74,-19.29 -57.57,-19.29 l -53.84,1.9 c -24.48,0 -42.9,6.29 -56.21,19.14 -14.3,13.73 -21.55,33.88 -21.55,59.88"
       style="fill:#ddebe9;fill-opacity:1;fill-rule:nonzero;stroke:none"
       id="path49" />
    <path
       d="m 8739.64,4291.45 c 0,23.86 12.25,35.81 36.73,35.81 h 65.32 c 23.57,0 35.37,-11.95 35.37,-35.81 l -1.85,-637.92 c 0,-23.9 -11.8,-35.82 -35.37,-35.82 l -63.47,6.13 c -24.48,0 -36.73,11.92 -36.73,35.82 z m 160.54,186.24 h -182.3 c -115.23,0 -172.82,-52.52 -172.82,-157.59 v -687.67 c 0,-106.02 57.59,-159.02 172.82,-159.02 l 177.57,-16.59 c 114.3,0 171.46,52.99 171.46,159.02 l 4.73,704.26 c 0,105.07 -57.16,157.59 -171.46,157.59"
       style="fill:#ffffff;fill-opacity:1;fill-rule:nonzero;stroke:none"
       id="path51" />
    <path
       d="m 8717.88,3516.62 h 1.82 l 177.51,-16.6 c 113.34,0.61 128.67,58.84 128.67,116.19 l 2.54,304.75 -111.2,3.9 -0.98,-271.34 c 0,-48 -29.98,-79.01 -76.4,-79.01 h -1.88 l -63.66,6.14 c -46.05,0.92 -75.68,31.72 -75.68,78.98 l -0.05,273.15 -112.47,4.22 v -304.58 c 0,-57.26 15.65,-115.8 131.78,-115.8"
       style="fill:#ddebe9;fill-opacity:1;fill-rule:nonzero;stroke:none"
       id="path53" />
    <path
       d="m 9505.35,4269.22 93.99,-512.01 -185.85,11.56 z m 124.42,209.29 h -248.82 l -224.27,-1042.95 192.69,-19.98 32.86,180.79 246.42,-26.28 41.24,-194.23 209.1,-24.99 z"
       style="fill:#ffffff;fill-opacity:1;fill-rule:nonzero;stroke:none"
       id="path55" />
    <path
       d="m 9703.55,3415.32 122.3,-14.63 -108.43,490.63 -101.81,4.89 34.04,-185.42 -285.32,17.76 32.51,177.2 -96.06,4.29 -93.81,-436.28 109.13,-11.32 32.89,180.9 313.26,-33.41 z"
       style="fill:#ddebe9;fill-opacity:1;fill-rule:nonzero;stroke:none"
       id="path57" />
    <path
       d="m 10211.7,3457.88 v 1019.81 h -193.2 V 3334.84 l 438.2,-59.84 v 150.42 z"
       style="fill:#ffffff;fill-opacity:1;fill-rule:nonzero;stroke:none"
       id="path59" />
    <path
       d="m 10170.6,3867.41 -111.1,6.71 v -501.31 l 356.2,-48.65 v 63.16 l -245.1,32.44 z"
       style="fill:#ddebe9;fill-opacity:1;fill-rule:nonzero;stroke:none"
       id="path61" />
    <path
       d="m 10920.1,2947.73 c 0,-10.17 -5.6,-16.4 -8.9,-19.2 -3.3,-2.82 -10.4,-7.29 -20.5,-5.61 -325.4,54.9 -654.2,103.57 -985.7,146.12 -1126.7,144.61 -2285.74,217.76 -3458.02,217.76 -1183.16,0 -2352.84,-74.46 -3489.39,-221.75 -320.9,-41.58 -639.16,-88.96 -954.33,-142.12 -10.06,-1.71 -17.18,2.77 -20.52,5.6 -3.32,2.8 -8.89,9.03 -8.89,19.2 v 1804.4 c 0,13.91 11.32,25.22 25.22,25.22 h 8895.83 c 13.9,0 25.2,-11.31 25.2,-25.22 z m -11.3,1909 c -4.6,0.6 -9.2,1.02 -13.9,1.02 H 1999.07 c -4.71,0 -9.33,-0.42 -13.89,-1.02 -51.68,-6.84 -91.73,-51.09 -91.73,-104.6 v -1804.4 c 0,-31.14 13.63,-60.52 37.39,-80.6 23.78,-20.1 55.02,-28.65 85.8,-23.48 316.14,53.32 635.42,100.8 957.35,142.44 1131.22,146.33 2295.38,220.32 3472.99,220.32 1168.29,0 2323.34,-72.87 3446.13,-216.9 330.99,-42.47 659.29,-91.06 984.19,-145.86 5.9,-0.99 11.8,-1.48 17.7,-1.48 24.8,0 48.9,8.7 68.1,24.96 23.8,20.09 37.4,49.46 37.4,80.6 v 1804.4 c 0,53.51 -40.1,97.76 -91.7,104.6"
       style="fill:#ffffff;fill-opacity:1;fill-rule:nonzero;stroke:none"
       id="path63" />
    <path
       d="m 10552.6,3262.35 c -5.2,0 -10.1,1.73 -13.5,3.8 l -1.9,-6.31 c 3.1,-2.07 9.3,-3.71 14.9,-3.71 13.7,0 20.3,7.77 20.3,16.76 0,8.55 -5,13.3 -14.8,17.1 -8,3.11 -11.6,5.78 -11.6,11.23 0,3.97 3,8.72 11,8.72 5.3,0 9.1,-1.73 11,-2.76 l 2.1,6.13 c -2.6,1.46 -6.9,2.84 -12.8,2.84 -11.4,0 -18.9,-6.73 -18.9,-15.8 0,-8.21 5.9,-13.13 15.4,-16.5 7.9,-3.02 11,-6.13 11,-11.57 0,-5.87 -4.5,-9.93 -12.2,-9.93 m 37.3,19.6 c 0.6,8.73 1,18.48 1.2,25.74 h 0.1 c 1.7,-6.91 4,-14.42 6.8,-22.63 l 9.4,-27.72 h 5.7 l 10.3,28.24 c 2.9,8.03 5.3,15.29 7.3,22.11 h 0.3 c -0.1,-7.26 0.4,-17.01 0.8,-25.14 l 1.5,-25.56 h 7.3 l -3.6,58.22 h -9.6 l -10.3,-28.16 c -2.6,-7.34 -4.7,-13.73 -6.2,-19.6 h -0.2 c -1.5,6.04 -3.5,12.43 -5.9,19.6 l -9.9,28.16 h -9.6 l -4.1,-58.22 h 7.2 z"
       style="fill:#ddebe9;fill-opacity:1;fill-rule:nonzero;stroke:none"
       id="path65" />
    <path
       d="m 7060.44,2878.08 c -3.21,7.21 -11.28,10.75 -18.6,7.81 -0.94,-0.38 -1.89,-0.75 -2.84,-1.12 -2.83,-1.09 -5.67,-2.18 -8.51,-3.21 l -1.01,-0.35 c -2.47,-0.96 -5.01,-1.85 -7.56,-2.67 -4.95,-1.78 -9.94,-3.46 -15.02,-5 -2.18,-0.69 -4.4,-1.36 -6.66,-1.98 -2.21,-0.73 -4.46,-1.37 -6.76,-1.96 l -1.34,-0.39 c -3.2,-0.9 -6.36,-1.78 -9.57,-2.56 -0.98,-0.25 -1.99,-0.54 -3.04,-0.72 -2.73,-0.74 -5.43,-1.37 -8.24,-1.97 -0.84,-0.25 -1.72,-0.45 -2.63,-0.64 -2.81,-0.67 -5.69,-1.28 -8.57,-1.82 -0.88,-0.21 -1.82,-0.42 -2.84,-0.57 -2.71,-0.56 -5.49,-1.13 -8.24,-1.59 -1.15,-0.23 -2.34,-0.43 -3.57,-0.61 -3.11,-0.59 -6.31,-1.12 -9.54,-1.55 -3.77,-0.62 -7.55,-1.16 -11.33,-1.64 l -0.58,-0.08 c -3.51,-0.45 -6.99,-0.88 -10.51,-1.19 l -1.26,-0.14 c -3.62,-0.43 -7.27,-0.76 -11,-1.02 -3.79,-0.35 -7.63,-0.59 -11.43,-0.79 l -0.42,-0.03 c -3.49,-0.21 -7.02,-0.4 -10.46,-0.46 l -1.75,-0.04 c -3.66,-0.2 -7.28,-0.25 -10.83,-0.22 -3.7,-0.1 -7.39,-0.08 -11.08,0 l -1.03,-0.01 c -3.72,0.04 -7.45,0.15 -11.18,0.33 -3.9,0.14 -7.81,0.34 -11.65,0.61 -3.84,0.21 -7.68,0.48 -11.46,0.84 h -0.31 c -3.85,0.35 -7.67,0.73 -11.49,1.18 -3.47,0.34 -6.84,0.79 -10.22,1.24 l -2.12,0.28 c -3.62,0.46 -7.24,1 -10.8,1.6 -3.87,0.62 -7.71,1.28 -11.55,1.99 -3.11,0.55 -6.26,1.19 -9.34,1.84 -4.83,0.99 -9.64,2.08 -14.44,3.18 -3.02,0.71 -6,1.47 -9.03,2.25 l -2.29,0.62 c -2.25,0.57 -4.49,1.15 -6.68,1.79 -2.07,0.56 -4.12,1.16 -6.17,1.75 -3.41,0.99 -6.8,2.03 -10.2,3.13 -2.72,0.85 -5.47,1.73 -8.17,2.69 l -2.61,0.88 c -2.98,1.01 -5.95,2.07 -8.9,3.18 l -2.06,0.73 c -2.37,0.87 -4.75,1.75 -7.13,2.69 -4.87,1.92 -9.71,3.87 -14.56,5.95 -2.03,0.84 -4.03,1.71 -5.99,2.61 -2.29,0.99 -4.54,2.02 -6.82,3.07 -3.12,1.44 -6.19,2.91 -9.31,4.41 -2.4,1.15 -4.8,2.37 -7.18,3.63 -2.72,1.36 -5.49,2.76 -8.18,4.23 -2.34,1.21 -4.61,2.44 -6.88,3.74 -4.87,2.67 -9.7,5.45 -14.48,8.37 -2.09,1.21 -4.19,2.49 -6.26,3.8 -3.44,2.1 -6.82,4.27 -10.16,6.48 -3.16,2.05 -6.26,4.17 -9.36,6.3 -2.73,1.88 -5.43,3.79 -8.13,5.71 a 493,493 0 0 0 -31.31,24.53 c -53.27,45.32 -94.2,99.72 -122.69,158.93 -248.35,-0.27 -493.54,-5.88 -736.42,-18.82 48.14,-71.07 106.55,-136.91 175.12,-195.25 345.88,-294.28 838.29,-303.68 1191.9,-51.41 5.44,3.88 7.59,11.13 4.84,17.21 z m 32.4,2508.3 -84.67,-42.15 55.65,-34.42 84.67,42.15 z m 51.41,-126.32 59.51,-36.81 84.67,42.14 -59.5,36.81 z m 346.28,-241.69 32.36,-51.43 52.75,67.11 -32.35,51.43 z m -103.23,91.34 48.97,-30.29 50,63.6 -48.98,30.29 z m -1977.52,37.16 50,-63.6 48.97,30.29 -50,63.6 z m -91.49,-106.28 52.75,-67.1 32.36,51.42 -52.76,67.11 z m 285.73,226.43 84.67,-42.15 57.58,35.62 -84.67,42.15 z m 138.01,85.37 84.68,-42.15 57.57,35.62 -84.67,42.15 z m 605.54,-301.4 v -89.79 l 7.93,-3.94 h 50.01 v 64.89 z m 138.32,-28.84 v -64.89 h 50.01 l 7.92,3.94 v 89.79 z"
       style="fill:#a4d41d;fill-opacity:1;fill-rule:nonzero;stroke:none"
       id="path67" />
    <path
       d="m 7368.58,3092.48 c 0.04,0.07 0.08,0.15 0.12,0.22 -0.04,-0.07 -0.08,-0.15 -0.12,-0.22 m 1.7,3.08 c 0.08,0.15 0.16,0.29 0.24,0.44 -0.08,-0.15 -0.16,-0.29 -0.24,-0.44 m -1809.89,1.08 c -0.01,0.02 -0.03,0.05 -0.04,0.07 0.01,-0.02 0.03,-0.05 0.04,-0.07 m -0.79,1.44 c -0.06,0.1 -0.11,0.2 -0.17,0.31 0.06,-0.1 0.11,-0.21 0.17,-0.31"
       style="fill:#100f0d;fill-opacity:1;fill-rule:nonzero;stroke:none"
       id="path69" />
    <path
       d="m 7309.05,2997.86 c -267.26,19.62 -539.2,28.96 -820.93,29.83 -25.28,30.58 -46.28,63.68 -63.01,98.43 6.41,0.01 12.8,0.06 19.2,0.06 313.71,0 622.07,-8.22 926.98,-28.8 -0.26,-0.46 -0.51,-0.92 -0.77,-1.38 -0.08,-0.15 -0.16,-0.29 -0.24,-0.44 -0.22,-0.4 -0.44,-0.8 -0.66,-1.21 -0.04,-0.06 -0.08,-0.13 -0.11,-0.2 -0.27,-0.48 -0.54,-0.97 -0.81,-1.45 -0.04,-0.07 -0.08,-0.15 -0.12,-0.22 -17.98,-32.38 -37.85,-63.97 -59.53,-94.62 m -1691.49,6.91 c -20.79,29.85 -39.91,60.49 -57.17,91.87 -0.01,0.02 -0.03,0.05 -0.04,0.07 -0.25,0.46 -0.5,0.91 -0.75,1.37 -0.06,0.1 -0.11,0.21 -0.17,0.31 l -0.72,1.32 c 43.25,2.8 86.59,5.27 129.98,7.59 a 968,968 0 0 1 72.91,-94.5 c -48.33,-2.36 -96.31,-5.03 -144.04,-8.03"
       style="fill:#c0e24c;fill-opacity:1;fill-rule:nonzero;stroke:none"
       id="path71" />
    <path
       d="m 5761.6,3012.8 a 968,968 0 0 0 -72.91,94.5 c 242.88,12.94 488.07,18.55 736.42,18.82 16.73,-34.75 37.73,-67.85 63.01,-98.43 -14.58,0.05 -29.18,0.07 -43.81,0.07 -238.69,0 -464.15,-4.29 -682.71,-14.96"
       style="fill:#8bc225;fill-opacity:1;fill-rule:nonzero;stroke:none"
       id="path73" />
    <path
       d="m 4855.91,5503.86 v 80.78 c 0,13.02 1.89,25.57 5.15,37.57 1.16,4.28 2.52,8.47 4.06,12.59 5.9,15.78 14.41,30.26 25.14,42.85 1.79,2.11 3.67,4.14 5.58,6.14 16.8,17.58 37.92,30.98 61.75,38.28 8.03,2.46 16.38,4.17 24.94,5.19 1.76,0.21 3.54,0.37 5.33,0.52 3.89,0.32 7.8,0.59 11.77,0.59 h 2892.13 c 3.98,0 7.89,-0.27 11.78,-0.59 1.79,-0.15 3.56,-0.31 5.32,-0.52 10.74,-1.28 21.07,-3.8 30.95,-7.33 a 144.04,144.04 0 0 0 55.76,-36.14 c 3.33,-3.5 6.48,-7.16 9.45,-10.97 a 143.3,143.3 0 0 0 21.92,-39.84 c 2.12,-5.89 3.96,-11.92 5.29,-18.13 2.1,-9.75 3.26,-19.85 3.26,-30.21 v -627.38 h 80.38 v 627.38 c 0,29.84 -5.91,58.31 -16.54,84.37 -2.73,6.7 -5.78,13.23 -9.12,19.58 -31.28,59.48 -88.48,103.23 -156.5,116.17 l -0.23,0.04 c -13.52,2.56 -27.46,3.95 -41.72,3.95 H 4999.63 c -11.97,0 -23.73,-0.97 -35.21,-2.78 -1.11,-0.18 -2.21,-0.4 -3.33,-0.6 -67.28,-11.72 -124.32,-53.51 -156.76,-111 -4.28,-7.6 -8.16,-15.45 -11.56,-23.56 -11.09,-26.54 -17.25,-55.65 -17.25,-86.17 v -627.38 h 80.39 z"
       style="fill:#ffffff;fill-opacity:1;fill-rule:nonzero;stroke:none"
       id="path75" />
  </g>
</svg>
